<?xml version="1.0" encoding="UTF-8" standalone="no"?>
<!-- Created with Inkscape (http://www.inkscape.org/) -->

<svg
   version="1.1"
   id="svg75"
   width="1049.6937"
   height="1291.964"
   viewBox="0 0 1049.6937 1291.964"
   sodipodi:docname="2b.svg"
   inkscape:version="1.2.2 (732a01da63, 2022-12-09, custom)"
   xmlns:inkscape="http://www.inkscape.org/namespaces/inkscape"
   xmlns:sodipodi="http://sodipodi.sourceforge.net/DTD/sodipodi-0.dtd"
   xmlns="http://www.w3.org/2000/svg"
   xmlns:svg="http://www.w3.org/2000/svg">
  <defs
     id="defs79" />
  <sodipodi:namedview
     id="namedview77"
     pagecolor="#ffffff"
     bordercolor="#000000"
     borderopacity="0.25"
     inkscape:showpageshadow="2"
     inkscape:pageopacity="0.0"
     inkscape:pagecheckerboard="0"
     inkscape:deskcolor="#d1d1d1"
     showgrid="false"
     inkscape:zoom="0.61580177"
     inkscape:cx="503.40875"
     inkscape:cy="721.82319"
     inkscape:window-width="1846"
     inkscape:window-height="1016"
     inkscape:window-x="0"
     inkscape:window-y="0"
     inkscape:window-maximized="1"
     inkscape:current-layer="layer1" />
  <g
     inkscape:groupmode="layer"
     id="layer2"
     inkscape:label="Base"
     style="fill:#000000">
    <path
       id="path193"
       style="fill:#000000;stroke-width:1.33333"
       d="M 443.67783 59.56511 C 439.35841 59.480738 434.86479 60.831986 431.01572 63.635423 L 427.6583 66.080735 L 427.61728 170.1823 L 427.57627 274.28191 L 333.16611 462.84831 C 169.99339 788.75763 85.796334 964.19858 54.658297 1043.1745 C 44.15538 1069.8133 40.948451 1086.0144 44.765719 1093.1471 C 45.578966 1094.6666 66.217145 1109.9938 90.629 1127.2077 L 135.01377 1158.5046 L 136.75791 1168.9596 C 139.67689 1186.4707 146.91727 1213.3092 152.70713 1228.0807 C 175.68261 1286.6987 226.55694 1331.1385 284.68369 1343.3659 C 299.15474 1346.41 407.10779 1349.1469 596.24228 1351.2624 C 669.90005 1352.0863 914.32483 1350.8261 928.08017 1349.5514 C 940.24747 1348.4237 943.39574 1347.6455 947.61533 1344.7214 C 955.48806 1339.2655 969.30268 1324.2846 975.98056 1313.9616 C 981.81379 1304.9444 982.40025 1304.4557 990.28916 1302.0671 C 994.81395 1300.6971 1001.1891 1297.8803 1004.4552 1295.8093 C 1009.1556 1292.8285 1012.8689 1291.7871 1022.2638 1290.8151 C 1038.2267 1289.1636 1044.6158 1286.1811 1049.9278 1277.903 C 1059.9356 1262.3073 1067.9673 1232.1523 1067.9923 1210.0807 C 1068.0116 1192.7159 1065.179 1180.446 1056.3731 1159.7311 L 1050.5724 1146.0807 L 1052.4571 1120.7468 C 1053.4947 1106.8135 1054.6027 1094.6632 1054.9181 1093.7468 C 1055.3404 1092.5199 1060.4273 1092.0807 1074.1993 1092.0807 L 1092.9083 1092.0807 L 1092.9083 1084.7858 L 1092.9083 1077.4889 L 1074.5763 1077.1178 L 1056.2423 1076.7468 L 1055.9044 1072.0807 C 1054.624 1054.4132 1051.6751 1049.4147 1042.5353 1049.4147 C 1035.5836 1049.4147 1032.1745 1053.2849 1028.2755 1065.6042 L 1025.17 1075.4147 L 1005.3731 1076.3757 C 975.20247 1077.8402 954.60613 1079.8908 949.86142 1081.903 C 945.38341 1083.8021 931.90422 1096.8307 927.49033 1103.526 C 926.08052 1105.6646 924.92306 1109.6647 924.91806 1112.4147 C 924.90337 1120.7737 929.16184 1119.2027 941.55869 1106.276 C 950.56849 1096.8814 953.07807 1095.0092 957.57627 1094.3249 C 967.3205 1092.8423 1019.1481 1091.6412 1019.8478 1092.8815 C 1020.2201 1093.5415 1019.6622 1097.8663 1018.6075 1102.4928 C 1017.1758 1108.7734 1015.957 1111.221 1013.7989 1112.153 C 1006.3284 1115.379 828.26209 1151.5002 778.24228 1159.9362 C 725.06118 1168.9054 731.03054 1168.6399 625.0665 1166.7682 C 572.54639 1165.8405 514.57555 1164.7052 496.24228 1164.2468 L 462.9083 1163.4147 L 462.56259 1101.0534 L 462.21494 1038.6921 L 465.22861 1037.5866 C 466.88586 1036.9789 473.04164 1035.7393 478.9083 1034.8327 C 484.77494 1033.9261 603.8053 1014.3363 743.41806 991.29949 C 883.03082 968.26267 997.68412 949.41472 998.20322 949.41472 C 999.68372 949.41472 1002.2423 942.9752 1002.2423 939.2487 C 1002.2423 934.60069 995.4869 928.07964 990.67783 928.08464 C 988.60476 928.08699 981.50827 929.03473 974.9083 930.19011 L 962.9083 932.29167 L 959.25986 927.92253 C 953.54968 921.08914 920.66569 875.63423 897.5958 842.6823 C 839.90525 760.27982 789.42421 680.94496 768.254 639.41472 C 728.50625 561.44032 693.40973 446.00731 670.87509 319.13152 L 666.25205 293.09831 L 672.91416 285.40886 C 676.57821 281.17937 679.54255 276.89952 679.50205 275.89909 C 679.4015 273.42084 659.96695 257.39762 657.1583 257.47722 C 655.92062 257.51228 651.05603 262.29345 646.34775 268.10027 L 637.7872 278.65691 L 629.68173 272.9362 C 625.22338 269.78951 615.27624 262.7775 607.57627 257.35417 C 574.09852 233.77484 545.03003 207.18562 519.20713 176.52214 C 505.89246 160.71161 478.354 124.03781 467.07431 107.09441 L 458.24228 93.826829 L 458.24228 80.338548 C 458.24228 68.145916 457.9591 66.588292 455.29892 64.110032 C 452.14294 61.169762 447.99723 59.649483 443.67783 59.56511 z M 426.24228 321.41472 C 427.12057 321.41472 427.57627 359.58491 427.57627 433.26042 L 427.57627 545.10808 L 421.57627 552.39519 C 418.27627 556.40365 415.57722 560.52372 415.57822 561.54949 C 415.57952 562.57523 418.27952 565.11978 421.57822 567.20378 L 427.57627 570.99284 L 427.57627 796.1237 C 427.57627 945.74467 427.12441 1021.5354 426.23252 1022.0866 C 425.4944 1022.5428 416.39562 1024.3574 406.01181 1026.1198 C 395.62801 1027.8822 386.57154 1029.8843 385.88681 1030.569 C 384.09456 1032.3613 384.35451 1041.1388 386.26767 1043.444 C 389.84473 1047.7541 397.08564 1048.514 411.50595 1046.0925 C 419.77727 1044.7036 425.64292 1044.2822 426.38291 1045.0221 C 427.09624 1045.7355 427.45897 1070.344 427.25595 1104.1628 L 426.9083 1162.0807 L 403.57627 1162.155 C 390.74295 1162.1958 363.74289 1161.8724 343.57627 1161.4362 L 306.9083 1160.6432 L 290.9083 1155.7389 C 265.84799 1148.0567 181.18993 1119.4466 126.24228 1100.0905 C 98.742324 1090.4032 75.191625 1082.1675 73.908297 1081.7897 C 70.496045 1080.7853 71.056 1078.8844 75.242282 1077.2565 C 82.718716 1074.3493 130.1266 1062.8767 146.24228 1060.0749 C 156.35047 1058.3176 171.57156 1056.8925 184.92392 1056.4538 C 212.92256 1055.5339 221.57006 1057.4661 248.24228 1070.6061 C 279.83077 1086.1682 312.99555 1110.2688 344.504 1140.5593 L 359.65439 1155.1257 L 364.23642 1152.6569 C 367.65297 1150.8169 368.67089 1149.4961 368.23838 1147.4675 C 366.48617 1139.2492 359.49679 1077.9689 356.29306 1042.7468 C 349.41826 967.16433 347.08991 906.03857 347.9747 824.24284 C 348.86498 741.94021 351.37773 704.7091 360.98838 631.41472 C 371.76208 549.25033 392.50399 445.76251 416.2247 355.81706 C 421.00106 337.7058 424.9083 322.55641 424.9083 322.15105 C 424.9083 321.74567 425.50894 321.41472 426.24228 321.41472 z M 595.65439 342.85808 C 595.71298 342.94633 595.43763 343.3547 594.76963 344.13542 C 593.22632 345.93914 567.79536 376.5141 538.25791 412.08074 C 508.72046 447.64736 483.32907 477.94805 481.83213 479.41472 L 479.11142 482.08074 L 481.53916 478.08074 C 486.45595 469.97955 506.78287 440.85312 518.0997 425.69206 C 535.71941 402.08716 549.21039 386.28162 565.57236 370.08074 C 578.4764 357.30372 595.24429 342.24031 595.65439 342.85808 z M 867.97275 937.55144 C 897.61884 937.51033 912.90897 938.29065 912.9083 939.86784 C 912.9081 940.35201 817.05774 956.86296 699.9083 976.55925 C 582.75882 996.25553 485.25894 1012.6806 483.24228 1013.0593 C 481.22561 1013.4379 479.57627 1013.171 479.57627 1012.4655 C 479.57627 1011.0061 524.34091 992.86533 556.24228 981.39714 C 649.23704 947.96651 700.7977 939.87432 833.57627 937.86784 C 846.61368 937.67083 858.09072 937.56514 867.97275 937.55144 z "
       transform="translate(-43.214938,-59.561204)" />
  </g>
  <g
     inkscape:groupmode="layer"
     id="layer1"
     inkscape:label="Body"
     style="fill:#784421">
    <path
       style="fill:#784421;stroke-width:1.33333"
       d="m 447.04123,521.95384 8.13256,-9.98514 0.94711,-62.9439 0.94712,-62.94392 -3.59356,-9.33334 -3.59356,-9.33333 L 448.94663,220.347 C 448.10559,87.957181 447.79892,73.066355 445.87382,71.141249 c -1.96248,-1.962487 -2.41951,-1.954424 -5.55183,0.09795 l -3.41331,2.236486 V 302.77828 c 0,126.11642 0.45,229.27066 1,229.23165 0.55,-0.0391 4.65966,-4.56427 9.13255,-10.05609 z"
       transform="translate(-43.214938,-59.561204)"
       id="path270" />
    <path
       style="fill:#784421;stroke-width:1.33333"
       d="m 481.07146,504.30362 c 45.73045,-54.29376 49.98781,-59.7568 48.18249,-61.82774 -1.80515,-2.07078 -1.66808,-2.24766 1.54983,-2 3.13518,0.24126 11.26448,-8.90227 72.66274,-81.72834 l 69.13263,-82 -4.17856,-3.6982 c -2.29821,-2.03401 -5.71072,-4.84096 -7.58334,-6.23765 l -3.40479,-2.53945 -24.3753,29.39866 -24.37528,29.39868 -1.35062,8.67534 -1.35063,8.67534 -89.53597,107.52118 c -49.24479,59.13665 -90.41652,108.62905 -91.49274,109.98313 -1.76205,2.21699 -1.64377,2.71539 1.1889,5.00913 1.73009,1.40095 3.51064,2.18243 3.95674,1.7366 0.44612,-0.44582 23.38438,-27.61082 50.9739,-60.36668 z"
       transform="translate(-43.214938,-59.561204)"
       id="path266" />
    <path
       style="fill:#784421;stroke-width:1.33333"
       d="m 451.85119,1017.6287 c 0.51837,-0.4947 1.56435,-96.29537 2.32436,-212.89033 1.69213,-259.58816 1.69107,-257.99083 0.17251,-257.99083 -0.67502,0 -4.86348,4.35 -9.3077,9.66667 l -8.08038,9.66667 -0.0256,226.1111 c -0.0141,124.36112 0.42054,226.55732 0.9659,227.10272 1.10359,1.1036 12.47134,-0.2539 13.95095,-1.666 z"
       transform="translate(-43.214938,-59.561204)"
       id="path260" />
    <path
       style="fill:#784421;stroke-width:1.33333"
       d="m 528.24203,1022.1187 c 279.1493,-45.8954 465.42909,-76.75086 467.08931,-77.36894 2.79816,-1.04172 1.25372,-7.49342 -2.42263,-10.12014 -3.20848,-2.29245 -3.90764,-2.28077 -18.66667,0.31194 -8.43333,1.48146 -143.06574,24.20628 -299.18313,50.49957 -156.1174,26.29327 -284.50391,48.46007 -285.30338,49.25957 -3.13785,3.1378 5.05531,9.9072 10.46772,8.6486 1.47699,-0.3434 59.08543,-9.8972 128.01878,-21.2306 z"
       transform="translate(-43.214938,-59.561204)"
       id="path258" />
    <path
       style="fill:#784421;stroke-width:1.33333"
       d="m 1044.6561,1068.8949 c 0.5976,-9.4111 -1.7141,-10.7354 -5.1563,-2.9537 -3.2114,7.2599 -2.6394,10.5212 1.7363,9.8999 2.5817,-0.3667 3.0644,-1.347 3.42,-6.9462 z"
       transform="translate(-43.214938,-59.561204)"
       id="path256" />
    <path
       style="fill:#784421;stroke-width:1.33333"
       d="m 958.90871,1090.1082 c 5.13333,-0.5794 36.33333,-1.4225 69.33339,-1.8737 58.8376,-0.8044 60,-0.872 60,-3.487 0,-2.4933 -1.1698,-2.7214 -18,-3.5091 -42.8468,-2.0055 -95.16101,-0.6242 -112.02941,2.9579 -6.54952,1.3909 -8.37137,2.6313 -17.63732,12.0085 -13.06688,13.2237 -13.62752,16.8469 -0.66666,4.3084 9.61174,-9.2985 9.71969,-9.3576 19,-10.405 z"
       transform="translate(-43.214938,-59.561204)"
       id="path254" />
    <path
       style="fill:#784421;stroke-width:1.33333"
       d="m 451.75284,1153.4142 c 0.46428,-4.7667 0.91428,-32.3002 1,-61.1857 l 0.15584,-52.5191 -6.69842,0.7934 c -3.68415,0.4363 -7.28415,1.1553 -8,1.5977 -1.5096,0.933 -1.85368,118.3172 -0.35122,119.8196 0.5227,0.5227 3.6727,0.7727 7,0.5556 l 6.04964,-0.3948 z"
       transform="translate(-43.214938,-59.561204)"
       id="path250" />
    <path
       style="fill:#784421;stroke-width:1.33333"
       d="m 764.78274,1210.7117 c 30.09806,-1.3437 46.28586,-3.4647 122.41787,-16.0397 35.72888,-5.9015 40.9991,-7.5548 69.41104,-21.7758 l 25.42749,-12.7271 0.77084,-7.0441 c 1.72878,-15.7979 1.54758,-23.0604 -0.56794,-22.7631 -1.1,0.1546 -22.7,4.5623 -48,9.7949 -58.77731,12.1565 -126.07388,25.2298 -162.66667,31.6002 l -28.66667,4.9905 -70.66667,-0.1133 c -68.57441,-0.11 -267.0605,-3.5346 -337.33335,-5.8203 l -34.66666,-1.1275 -18,-5.5203 c -9.9,-3.0362 -38.41533,-12.3974 -63.36741,-20.8028 -24.95208,-8.4053 -46.19249,-15.2824 -47.2009,-15.2824 -2.62013,0 -1.07236,27.5974 1.70347,30.3732 1.05929,1.0593 18.63723,7.2826 39.06208,13.8294 74.26164,23.8035 76.88755,24.4298 119.13609,28.4138 45.03328,4.2466 82.45036,6.1365 148,7.4756 37.03333,0.7564 84.13335,1.8506 104.66668,2.4314 55.47368,1.569 146.58483,1.6232 180.54071,0.1073 z"
       transform="translate(-43.214938,-59.561204)"
       id="path246" />
    <path
       style="fill:#784421;stroke-width:1.33333"
       d="m 758.24204,1253.4049 c 42.3352,-1.4314 39.91786,-1.1741 100,-10.6421 65.61221,-10.3395 72.95867,-11.9915 88.66667,-19.9388 7.33333,-3.7103 16.97489,-9.0615 21.42568,-11.8916 l 8.09234,-5.1457 2.14885,-15.1673 c 1.18185,-8.342 1.8843,-15.4318 1.561,-15.7551 -0.32332,-0.3233 -10.63186,4.2724 -22.90786,10.2127 -24.86699,12.0331 -30.62763,13.6702 -70.98668,20.1734 -69.95855,11.2725 -86.46674,13.5634 -106.66667,14.8022 -59.83824,3.6697 -336.72537,-0.7415 -415.58617,-6.6208 -35.43821,-2.6421 -66.1644,-5.828 -78.35973,-8.1251 -8.73485,-1.6452 -34.67593,-9.4051 -75.59777,-22.6138 -18.08233,-5.8366 -33.23234,-10.612 -33.66667,-10.612 -0.43432,0 -0.78968,1.019 -0.78968,2.2645 0,3.1102 6.63988,24.7124 8.17194,26.5865 1.42012,1.7372 88.42164,30.9775 104.41518,35.0928 20.73642,5.3358 86.32425,11.1213 152.07955,13.415 54.43812,1.899 195.31107,4.8595 241.33335,5.0717 21.26666,0.098 55.76666,-0.3998 76.66667,-1.1065 z"
       transform="translate(-43.214938,-59.561204)"
       id="path244" />
    <path
       style="fill:#784421;stroke-width:1.33333"
       d="m 999.57538,1285.4142 c 4.96502,-3.3006 7.37992,-3.9952 14.00002,-4.0269 18.3118,-0.088 25.4147,-4.4129 32.4611,-19.7667 11.3851,-24.8077 14.8032,-55.697 8.4328,-76.2064 -1.7084,-5.5 -5.5479,-15.6051 -8.5322,-22.4559 l -5.4262,-12.4558 1.6175,-26.2108 c 0.8896,-14.416 1.7291,-27.4108 1.8655,-28.8775 0.2072,-2.2258 -0.6745,-2.7338 -5.3328,-3.0725 -4.4485,-0.3234 -5.8673,0.1292 -6.9921,2.231 -0.7762,1.4502 -3.485,13.0328 -6.0196,25.7391 -4.2434,21.2723 -6.2559,33.8525 -12.0932,75.5961 -2.3202,16.5923 -9.5884,46.8534 -17.9524,74.7449 -2.94897,9.8338 -5.36176,18.0781 -5.36176,18.3206 0,1.4699 4.14708,-0.1116 9.33334,-3.5592 z"
       transform="translate(-43.214938,-59.561204)"
       id="path242" />
    <path
       style="fill:#784421;stroke-width:1.33333"
       d="m 723.57537,1290.7547 c 103.97301,-2.9539 161.4382,-7.4801 190,-14.9651 5.86667,-1.5375 18.75608,-6.1509 28.64315,-10.252 16.68951,-6.9229 18.18668,-7.8386 20.91232,-12.7901 3.31924,-6.0298 10.20527,-28.6837 9.06539,-29.8236 -0.40992,-0.4099 -4.16731,1.2221 -8.34975,3.6268 -20.66772,11.8825 -31.76803,14.9612 -82.27111,22.8184 -14.66666,2.2819 -37.77349,5.9182 -51.34851,8.0807 -16.09124,2.5634 -34.19001,4.3933 -52,5.2575 -35.39148,1.7174 -126.02543,1.7331 -190.11632,0.033 -27.79435,-0.7373 -78.73519,-1.9276 -113.20186,-2.6452 -94.43845,-1.9663 -165.91099,-7.6032 -194.66666,-15.353 -6.6,-1.7788 -29.31231,-8.9929 -50.47179,-16.0315 -21.15948,-7.0386 -38.77388,-12.4953 -39.1431,-12.126 -0.84352,0.8435 6.38885,13.7465 13.32793,23.7779 3.54384,5.1231 6.63429,8.0529 9.44396,8.953 16.27625,5.2142 69.13411,20.8049 79.50967,23.4518 14.2448,3.6339 34.15923,6.2177 71.33332,9.2551 46.91173,3.833 67.72097,4.7529 139.33334,6.1593 39.23335,0.7706 88.13335,1.8662 108.66668,2.4347 55.87179,1.547 61.49696,1.554 111.33334,0.1382 z"
       transform="translate(-43.214938,-59.561204)"
       id="path240" />
    <path
       style="fill:#784421;stroke-width:1.33333"
       d="m 737.72115,1313.0825 164.1458,-0.335 14.01185,-6.9653 c 11.15975,-5.5476 15.50799,-8.5814 21.36204,-14.9045 8.38923,-9.0613 13.69148,-16.1323 12.09199,-16.1256 -0.59994,0 -5.55828,1.825 -11.01855,4.05 -31.42963,12.8073 -78.83252,17.7931 -204.00289,21.457 -45.13674,1.3212 -71.32581,1.3201 -129.33333,-0.01 -40.00482,-0.914 -97.63604,-2.2046 -128.06938,-2.8678 -55.40257,-1.2074 -77.14193,-2.2811 -122,-6.0252 -48.62971,-4.0589 -57.58352,-5.7521 -103.99999,-19.6665 -13.2,-3.9571 -24.23338,-7.0054 -24.51862,-6.7742 -0.28525,0.2312 2.6462,3.2869 6.51432,6.7906 31.21938,28.2777 58.56286,38.7901 108.00429,41.5228 8.43333,0.4661 64.23333,0.6982 124,0.5158 59.76667,-0.1824 182.53229,-0.4824 272.81247,-0.6667 z"
       transform="translate(-43.214938,-59.561204)"
       id="path238" />
    <path
       style="fill:#784421;stroke-width:1.33333"
       d="m 911.32673,1340.1096 c 28.10668,-1.2855 28.41366,-1.4051 42.62962,-16.6025 16.83961,-18.0022 25.73941,-35.4871 35.53657,-69.8166 9.16746,-32.1231 12.95218,-50.0961 17.32548,-82.2763 1.8935,-13.9333 4.2554,-30.2833 5.2485,-36.3333 2.0696,-12.6071 2.5147,-12.2164 -10.4789,-9.1986 l -6.65402,1.5454 -1.60672,21.0787 c -1.93556,25.3929 -6.12827,56.2928 -10.34491,76.2411 -6.22939,29.4704 -17.71366,52.4398 -36.21516,72.433 -8.49578,9.1807 -11.04332,10.9963 -24.65322,17.5696 l -15.17834,7.3308 -280.68015,0.7645 c -154.37408,0.4205 -287.58013,0.2554 -296.01347,-0.3668 -34.93072,-2.5774 -59.27574,-9.5927 -80.28632,-23.1355 -12.23238,-7.8847 -28.88224,-21.9365 -40.16918,-33.9013 -27.90649,-29.5823 -45.20477,-72.3697 -49.06437,-121.3609 -0.83771,-10.6334 -2.18844,-19.988 -3.00162,-20.7881 -1.08376,-1.0663 -66.661834,-24.4964 -100.478514,-35.8996 -5.47288,-1.8454 2.88848,4.5411 41.82814,31.9491 23.906984,16.827 43.972614,31.827 44.590294,33.3333 0.61768,1.5062 2.67636,10.6952 4.57483,20.4198 8.75013,44.8216 20.90623,72.2203 44.65522,100.649 23.91225,28.6241 52.5113,47.4916 87.42601,57.6771 15.3049,4.4648 32.39158,5.3685 139.92552,7.4004 181.50966,3.4298 430.00494,4.0814 491.08471,1.2877 z"
       transform="translate(-43.214938,-59.561204)"
       id="path236" />
  </g>
  <g
     inkscape:groupmode="layer"
     id="layer3"
     inkscape:label="Sail"
     style="fill:#ffe680">
    <path
       style="fill:#ffe680;stroke-width:1.33333"
       d="m 478.90868,461.76822 c 34.33375,-52.93341 71.99159,-97.10416 109.48671,-128.42241 11.30807,-9.4452 25.50849,-25.04977 40.76535,-44.79625 0.81018,-1.0486 -3.5614,-4.79942 -13.86778,-11.89854 -21.72025,-14.96109 -49.25229,-36.09924 -62.70121,-48.13984 -21.01453,-18.81397 -54.02532,-57.38793 -78.05739,-91.21213 -5.66078,-7.96733 -10.79234,-14.50079 -11.40346,-14.51879 -0.61112,-0.018 -0.74022,10.61728 -0.28687,23.63395 0.45335,13.01667 1.98709,80.06667 3.40832,149 2.94747,142.95912 3.92757,176.67379 5.13533,176.64944 0.46988,-0.009 3.85434,-4.64241 7.521,-10.29543 z"
       transform="translate(-43.214938,-59.561204)"
       id="path274" />
    <path
       style="fill:#ffe680;stroke-width:1.33333"
       d="m 503.6318,989.97393 c 76.33323,-30.52505 138.20367,-48.25284 189.94357,-54.42465 47.21409,-5.63198 69.81937,-6.60264 160.66667,-6.89902 48.76667,-0.15909 88.96667,-0.57478 89.33333,-0.92376 0.36667,-0.34898 -7.78829,-12.26201 -18.12213,-26.4734 C 855.4514,804.9846 783.13773,693.77748 758.30198,644.20054 718.68823,565.12389 683.03197,447.90289 661.53638,326.08088 c -1.94095,-11 -3.79049,-20.26428 -4.11009,-20.58731 -0.84628,-0.85535 3.34736,-5.76888 -96.66085,113.25397 l -92.42681,110 -0.93583,162.66667 c -1.30516,226.86436 -1.33378,312.66669 -0.10426,312.66669 0.58104,0 16.93104,-6.34816 36.33333,-14.10697 z"
       transform="translate(-43.214938,-59.561204)"
       id="path264" />
    <path
       style="fill:#ffe680;stroke-width:1.33333"
       d="M 353.67643,1114.447 C 339.41364,1002.3205 333.73131,854.50476 339.6438,749.41421 c 6.53792,-116.20672 27.70385,-244.75524 63.11709,-383.33333 6.36426,-24.90438 7.46865,-30.51191 5.62394,-28.55556 -1.17566,1.24682 -166.58,332.80436 -192.84124,386.55556 -49.87035,102.07404 -84.01624,173.45633 -111.29666,232.66666 -27.461864,59.60416 -49.643464,112.58366 -47.876584,114.35056 0.34445,0.3444 7.289,-1.3965 15.43232,-3.8688 52.643594,-15.9824 105.780084,-24.0902 136.048834,-20.759 17.10456,1.8824 26.67251,4.9448 47.34908,15.1549 27.79525,13.7253 62.97108,38.4893 88.37477,62.2164 6.82721,6.3766 11.50222,9.8669 11.75812,8.7784 0.23362,-0.9937 -0.51204,-9.1716 -1.65704,-18.173 z"
       transform="translate(-43.214938,-59.561204)"
       id="path252" />
  </g>
</svg>
