<?xml version="1.0" encoding="UTF-8" standalone="no"?>
<!-- Created with Inkscape (http://www.inkscape.org/) -->

<svg
   version="1.1"
   id="svg198"
   width="1156.6829"
   height="893.28375"
   viewBox="0 0 1156.6829 893.28371"
   sodipodi:docname="Boat43b.svg"
   inkscape:version="1.2.2 (732a01da63, 2022-12-09, custom)"
   xmlns:inkscape="http://www.inkscape.org/namespaces/inkscape"
   xmlns:sodipodi="http://sodipodi.sourceforge.net/DTD/sodipodi-0.dtd"
   xmlns="http://www.w3.org/2000/svg"
   xmlns:svg="http://www.w3.org/2000/svg">
  <defs
     id="defs202" />
  <sodipodi:namedview
     id="namedview200"
     pagecolor="#ffffff"
     bordercolor="#000000"
     borderopacity="0.25"
     inkscape:showpageshadow="2"
     inkscape:pageopacity="0.0"
     inkscape:pagecheckerboard="0"
     inkscape:deskcolor="#d1d1d1"
     showgrid="false"
     inkscape:zoom="0.53182881"
     inkscape:cx="342.21538"
     inkscape:cy="202.13271"
     inkscape:window-width="1846"
     inkscape:window-height="1016"
     inkscape:window-x="0"
     inkscape:window-y="0"
     inkscape:window-maximized="1"
     inkscape:current-layer="layer2" />
  <g
     inkscape:groupmode="layer"
     id="layer1"
     inkscape:label="Layer 1">
    <path
       id="path316"
       style="fill:#000000;stroke-width:1.33333"
       d="M 897.62347 81.805891 C 892.03678 82.168483 886.35952 83.417864 881.55316 85.493391 C 876.23718 87.788973 874.10246 88.167688 872.95355 87.018782 C 870.92233 84.98757 863.70693 85.070432 860.8598 87.157454 C 858.90993 88.586716 858.30755 93.844986 856.62738 124.06956 C 855.54977 143.45414 854.17834 159.8018 853.5805 160.39964 C 852.98268 160.99747 838.85864 161.88529 822.19183 162.37034 L 791.88714 163.2512 L 786.50238 171.37034 C 774.01788 190.1931 762.49304 218.27365 757.05902 243.11448 C 753.3071 260.26575 751.78582 316.15745 755.07074 316.15745 C 756.22238 316.15745 763.69268 313.48346 771.67034 310.21605 C 779.64804 306.94861 792.72588 302.42403 800.73284 300.16136 C 818.06347 295.26395 845.34987 290.34871 846.85394 291.85277 C 847.44124 292.44004 847.47969 301.29816 846.93988 311.53831 L 845.95745 330.15745 L 794.60394 329.68675 L 743.25042 329.218 L 734.91253 340.35472 C 725.40582 353.05429 713.59862 375.95811 708.71527 391.17113 C 697.55296 425.94465 695.67732 466.05723 703.43402 504.10277 C 705.50259 514.24904 713.7102 540.51972 715.93792 544.12425 C 716.95492 545.76978 720.11144 545.09646 736.21722 539.79417 C 767.25252 529.57687 811.45399 519.39263 828.62542 518.50316 L 835.29144 518.15745 L 834.9223 534.82347 C 834.71893 543.99009 834.25959 552.31054 833.90277 553.3137 C 833.36331 554.83044 822.98279 555.05566 772.27191 554.64769 L 711.29144 554.15745 L 703.23284 570.15745 C 693.92611 588.63411 689.3064 602.11921 684.27581 625.49144 C 680.84705 641.4217 680.68888 643.86523 680.68988 680.82347 C 680.69133 722.39701 681.93845 734.09026 690.00433 768.15745 C 694.57773 787.47376 706.79137 824.30486 708.89105 825.11058 C 709.84066 825.47498 713.46826 823.94402 716.95355 821.70823 C 727.7905 814.75644 750.75306 804.41972 767.77777 798.82933 C 787.4515 792.36906 819.3122 785.60755 821.09808 787.51292 C 822.47008 788.97672 820.7152 827.18694 819.16058 829.70238 C 818.45258 830.84791 801.38581 831.0142 752.08441 830.36058 C 715.71487 829.87839 656.55864 829.13821 620.62542 828.71409 C 584.69225 828.28997 554.48364 827.68781 553.49652 827.3762 C 552.02688 826.91225 551.87821 821.79824 552.6723 799.14964 C 553.20567 783.93707 554.17998 770.05565 554.83831 768.30198 C 556.00734 765.18801 556.2912 765.13464 566.99652 766.00706 C 602.49964 768.9004 638.77609 779.14426 674.96331 796.49339 C 685.78302 801.68067 695.0369 805.52137 695.52777 805.0305 C 696.01864 804.53964 693.66069 798.89329 690.28753 792.48167 C 682.4693 777.62105 672.85401 754.11892 669.31683 741.22581 C 659.76346 706.40351 659.35675 678.93432 667.28753 604.1887 C 669.03637 587.7065 670.22377 573.97847 669.9262 573.68089 C 669.62863 573.38333 651.21329 574.15235 629.00433 575.38988 C 606.79536 576.62737 582.92411 577.75539 575.95745 577.89769 L 563.29144 578.15745 L 563.71722 554.82347 C 563.95098 541.99018 564.56856 531.0523 565.09027 530.51683 C 566.7125 528.85177 595.95493 532.04564 609.95745 535.41722 C 631.28427 540.55237 653.50923 549.57747 676.24652 562.33323 C 681.17222 565.09662 685.50249 567.05773 685.86761 566.69261 C 686.23275 566.32749 684.10845 559.15701 681.14691 550.75902 C 664.60019 503.83822 662.50593 465.53607 673.27972 406.82347 C 675.36551 395.45684 677.48464 383.5466 677.9887 380.35472 L 678.90472 374.55003 L 675.09808 375.32152 C 656.13048 379.16712 573.56614 384.87555 571.19574 382.50511 C 570.84294 382.15231 571.01879 372.03029 571.58831 360.01097 L 572.62542 338.15745 L 583.29144 338.28636 C 597.48756 338.45903 617.24752 342.83604 643.77972 351.68284 C 655.78156 355.68471 665.92156 358.63867 666.31292 358.2473 C 666.70429 357.85592 664.20084 350.92295 660.75042 342.84105 C 652.8984 324.44927 649.83567 315.66904 646.56097 302.15745 C 643.15318 288.09679 643.28867 280.55215 647.29144 261.23167 C 649.12477 252.38261 650.62542 243.7309 650.62542 242.00511 L 650.62542 238.86644 L 614.29144 238.51292 L 577.95745 238.15745 L 577.95745 216.15745 L 577.95745 194.15745 L 573.03753 193.7473 C 570.33164 193.52233 566.36735 194.24397 564.22699 195.35081 C 560.45858 197.29953 560.31282 197.74321 559.65277 209.31956 C 558.97454 221.21456 558.9393 221.31443 552.48284 229.53245 L 545.99456 237.79222 L 531.30902 236.92113 C 523.23249 236.44217 513.2152 235.70131 509.0473 235.27464 L 501.46917 234.49925 L 490.19183 257.02269 C 473.79795 289.76765 468.00749 307.46774 465.83245 331.46995 L 464.87152 342.06956 L 441.37542 372.11448 C 428.45337 388.63834 413.73008 407.55749 408.65667 414.15745 C 403.5833 420.75745 391.58585 435.15749 381.99456 446.15745 C 349.13735 483.84046 287.55073 556.78131 227.55706 629.06956 C 199.24236 663.1869 198.48383 663.96793 194.26995 663.35667 C 191.89834 663.01264 188.45876 663.51738 186.62542 664.47777 C 178.81761 668.56786 179.78934 669.50198 231.95159 708.00902 C 259.1371 728.07777 281.86183 745.47152 282.45159 746.66136 C 283.04135 747.85122 284.25827 752.24885 285.15667 756.4348 L 286.79144 764.04613 L 306.37347 777.90745 C 364.02499 818.71802 406.44796 856.68188 431.37347 889.77073 C 443.11159 905.35322 454.44527 927.96203 458.63714 944.15745 C 460.25051 950.39079 462.35849 957.3987 463.32269 959.72972 L 465.07659 963.968 L 512.18402 964.1223 C 538.09318 964.20746 563.19082 964.51249 567.95745 964.80003 C 572.72411 965.08757 611.72562 965.66652 654.62542 966.08714 C 697.52526 966.50774 747.32485 967.14057 765.29144 967.49339 C 795.89089 968.09425 819.91725 968.41973 961.95745 970.16527 C 992.75733 970.54377 1030.5575 971.14125 1045.9575 971.49144 C 1061.3571 971.84163 1111.1592 972.50989 1156.6254 972.97777 C 1202.0921 973.44567 1239.4056 973.91691 1239.5453 974.02464 C 1239.6851 974.13239 1245.5183 974.39062 1252.5082 974.59886 L 1265.2172 974.97777 L 1265.5883 955.90159 L 1265.9575 936.82347 L 1282.9575 936.45042 L 1299.9575 936.07738 L 1299.9575 914.38011 C 1299.9575 893.65186 1299.8029 892.3688 1296.4711 885.68284 C 1294.5529 881.83351 1291.5517 877.74644 1289.8032 876.60081 C 1288.0548 875.45519 1286.6254 874.0107 1286.6254 873.39183 C 1286.6254 872.77298 1293.2324 868.88638 1301.309 864.75511 C 1317.8918 856.27286 1325.9846 849.15041 1331.1684 838.47581 C 1334.5503 831.5118 1340.8292 807.25002 1339.5746 805.99534 C 1339.2114 805.63205 1329.6989 807.13991 1318.436 809.34495 C 1264.1798 819.96725 1170.1794 833.34157 1167.4926 830.82152 C 1166.8703 830.2378 1166.8703 820.54986 1167.4926 809.29222 L 1168.6254 788.82347 L 1193.9575 788.98363 C 1226.6808 789.1906 1266.4124 794.07813 1313.1684 803.64573 C 1318.656 804.76867 1318.8099 805.57645 1309.4535 784.15745 C 1286.535 731.69117 1284.8323 681.39236 1303.3676 604.28245 C 1305.907 593.71784 1307.83 584.92063 1307.6391 584.73363 C 1307.4482 584.54662 1297.6904 584.98797 1285.9575 585.71409 C 1274.2241 586.44021 1244.8254 587.13732 1220.6254 587.26292 L 1176.6254 587.49144 L 1177.1118 566.15745 C 1177.3931 553.81433 1178.1963 544.08329 1179.018 543.06566 C 1180.7566 540.91252 1187.7913 541.67764 1208.9282 546.32152 C 1228.2018 550.55608 1248.7861 557.1029 1271.5453 566.23558 C 1281.5326 570.24316 1289.9382 573.28803 1290.225 573.0012 C 1290.5119 572.71437 1288.3675 565.35671 1285.4575 556.65159 C 1276.9113 531.08562 1274.0748 513.96142 1274.1118 488.15745 C 1274.1465 464.22817 1275.1939 456.73915 1283.9086 418.15745 C 1291.4803 384.63606 1291.2901 386.82347 1286.6371 386.82347 C 1284.4807 386.82347 1276.245 387.70835 1268.3364 388.78831 C 1247.623 391.61685 1204.8616 396.02341 1193.9575 396.45433 L 1184.6254 396.82347 L 1185.0239 379.49144 C 1185.244 369.95815 1185.9157 361.66609 1186.516 361.06566 C 1187.9374 359.64413 1206.6707 362.84153 1244.4086 370.94847 C 1261.1567 374.54629 1276.0774 377.49144 1277.5649 377.49144 C 1280.6971 377.49144 1280.8217 378.07551 1273.8754 360.15745 C 1267.0117 342.45258 1263.5245 324.76364 1264.3618 311.89964 C 1264.729 306.25769 1267.3248 292.57698 1270.1313 281.49925 C 1274.4715 264.36785 1274.9446 261.1795 1273.2973 260.16136 C 1268.2899 257.06662 1235.0536 253.54422 1210.5571 253.51292 C 1199.105 253.49827 1191.9483 252.9471 1191.0082 252.00706 C 1190.0004 250.99929 1189.7673 245.61746 1190.2797 235.21214 C 1190.8856 222.91066 1190.6658 219.66778 1189.1625 218.71605 C 1186.5336 217.05165 1176.7126 217.20472 1172.8383 218.96995 C 1169.7701 220.36789 1169.5356 221.29587 1168.5375 235.96995 C 1167.9568 244.50668 1167.5474 251.81589 1167.6274 252.21409 C 1167.7079 252.61222 1164.0645 252.77404 1159.5317 252.57347 C 1154.999 252.37291 1140.1921 252.00565 1126.6254 251.75706 L 1101.9575 251.30589 L 1094.7465 266.71995 C 1079.0735 300.22348 1074.8919 318.07278 1073.7133 356.49144 C 1073.0121 379.34731 1073.1702 382.82347 1074.9028 382.82347 C 1076.0007 382.82347 1083.1373 379.89011 1090.7621 376.30394 C 1114.1438 365.30678 1141.1364 358.26014 1156.7075 359.08909 L 1164.2563 359.49144 L 1164.0395 378.0598 C 1163.9209 388.27253 1163.4697 397.20314 1163.0356 397.9055 C 1161.0622 401.09862 1091.3732 397.07511 1074.2621 392.7805 C 1071.3595 392.052 1070.6299 392.98123 1065.6508 403.73753 C 1052.3108 432.5557 1046.6029 463.5985 1046.6469 507.10472 C 1046.6782 538.30086 1050.5411 574.82961 1053.8071 574.81761 C 1054.6231 574.81448 1064.5908 570.12364 1075.9575 564.39378 C 1105.2913 549.60666 1135.8211 540.55397 1152.3168 541.74925 L 1157.9575 542.15745 L 1157.6176 564.09886 C 1157.4284 576.27868 1156.6908 586.62521 1155.9594 587.35667 C 1154.664 588.65204 1057.0483 586.21022 1046.5668 584.62034 L 1041.8422 583.9055 L 1034.3403 599.69847 C 1024.951 619.46313 1019.8126 634.12229 1015.4477 653.59495 C 1007.1491 690.61739 1007.7633 729.72787 1017.3422 774.15745 C 1020.522 788.9059 1031.499 825.48306 1033.3012 827.33519 C 1033.9582 828.01034 1038.904 825.9019 1044.8813 822.39769 C 1059.1403 814.03827 1073.33 807.62675 1089.5981 802.19456 C 1104.0959 797.35357 1132.143 791.28626 1143.2914 790.57933 L 1149.9575 790.15745 L 1150.3129 801.49144 C 1150.5084 807.72474 1150.2091 817.28113 1149.6469 822.72972 C 1148.4034 834.78225 1150.5632 833.89368 1117.1664 836.11448 C 1083.2318 838.37111 1034.9774 838.13922 1016.268 835.63011 C 1005.1206 834.13515 980.87151 833.38543 922.268 832.72191 C 878.83066 832.23011 842.88137 831.45068 842.38128 830.99144 C 840.78621 829.52669 843.32819 786.91979 845.11761 785.1262 C 847.41084 782.82768 881.60058 782.22261 903.29144 784.09691 C 944.00674 787.61504 984.64003 797.43346 1014.477 810.96214 C 1019.1895 813.09888 1023.3502 814.54213 1023.7231 814.16917 C 1024.0961 813.7962 1020.7262 805.84158 1016.2328 796.49144 C 991.82069 745.69301 983.75519 699.51732 989.97699 646.14964 C 992.38958 625.45524 999.50933 589.84874 1005.8364 566.82933 C 1008.3549 557.66607 1010.183 549.93761 1009.8989 549.65355 C 1009.6148 549.36947 986.71046 550.13774 959.00238 551.36058 C 931.29427 552.5834 896.3247 553.71249 881.29144 553.87034 L 853.95745 554.15745 L 854.43597 536.15745 C 854.69854 526.25749 855.52216 517.40811 856.26605 516.49144 C 857.99042 514.36655 899.61247 514.19321 918.34417 516.23363 C 946.03386 519.24982 973.15749 526.42338 994.97699 536.49925 C 1001.4045 539.46736 1006.8861 541.6553 1007.1567 541.36058 C 1007.4272 541.06585 1006.5447 534.69909 1005.1957 527.21409 C 994.0124 465.15997 995.57628 383.47405 1008.6586 346.43284 C 1010.5253 341.14755 1012.3805 335.85805 1012.7797 334.67698 C 1013.3346 333.0352 1012.616 332.53358 1009.7309 332.54808 C 950.74451 332.84603 868.31776 331.72996 866.21527 330.60472 C 863.72156 329.27014 863.61398 328.1639 864.30316 310.75511 C 864.70456 300.61535 865.47361 291.60695 866.01214 290.73558 C 866.73239 289.57019 871.08612 289.39736 882.47503 290.08519 C 911.08019 291.81278 939.39005 297.74391 975.21722 309.51292 C 986.18694 313.11641 995.36139 315.86483 995.60394 315.6223 C 995.84647 315.37975 994.83129 309.74104 993.35003 303.09105 C 986.16497 270.83436 983.267 239.73148 985.21917 215.82347 C 986.33381 202.17252 989.71291 178.82168 992.71527 164.01292 L 993.42034 160.53441 L 981.86566 159.59691 C 972.48967 158.83614 906.44239 158.66992 877.95745 159.33519 L 871.29144 159.49144 L 871.40081 152.82347 C 871.46082 149.1568 871.6975 141.85815 871.9262 136.60472 L 872.34027 127.05394 L 876.6762 127.75706 C 879.06084 128.14403 888.1255 127.76902 896.81878 126.92308 C 910.14438 125.6264 916.35924 124.13672 936.42425 117.43675 C 949.51418 113.06584 961.06357 109.49144 962.09027 109.49144 C 963.11697 109.49144 963.95745 108.89078 963.95745 108.15745 C 963.95745 107.42411 962.46456 106.82347 960.63909 106.82347 C 955.01688 106.82347 945.17726 102.3104 932.32659 93.837141 C 925.56251 89.377141 916.93086 84.699436 913.14691 83.44261 C 908.70519 81.967309 903.21013 81.443299 897.62347 81.805891 z M 557.28363 232.24144 C 558.12745 232.21042 558.66107 233.19645 558.38324 235.14378 C 558.14891 236.7863 556.90876 238.33082 555.62542 238.57542 C 552.93601 239.08801 552.74826 238.33069 554.6723 234.73558 C 555.55447 233.08724 556.53907 232.26881 557.28363 232.24144 z M 548.65667 339.26488 C 552.27892 339.16816 553.29144 340.43126 553.29144 343.32933 C 553.29144 346.70762 548.61955 351.23906 521.48675 374.18284 L 509.01605 384.72777 L 492.15277 385.13988 C 463.0019 385.85225 464.99648 385.07904 455.768 399.25511 C 446.83975 412.97 438.70952 428.95205 434.63324 440.80003 C 432.58362 446.75739 430.1699 450.37931 424.88128 455.43675 C 412.24192 467.52368 394.36401 495.27974 377.32464 529.26683 C 364.17056 555.50419 351.81984 584.85145 335.98675 627.49144 C 320.55208 669.05846 302.44393 717.04262 298.37542 727.1555 C 296.67961 731.37071 294.96343 734.82052 294.56292 734.82152 C 293.13055 734.82672 204.82275 670.12755 204.36761 668.73948 C 203.60078 666.40096 233.59935 662.16001 249.95745 662.29417 C 266.42795 662.42925 277.40309 664.82064 289.81683 670.97972 C 294.16467 673.13692 298.22005 674.7354 298.82855 674.5305 C 299.43705 674.32562 304.11538 661.82041 309.22308 646.74144 C 332.19384 578.92669 358.39135 518.34334 394.23284 450.15745 C 409.05749 421.95466 410.68 419.50149 436.31683 386.49144 C 450.98221 367.60819 463.41489 352.15745 463.94574 352.15745 C 464.47657 352.15745 465.29906 355.85817 465.77191 360.38206 C 466.24475 364.90599 466.88289 368.85828 467.18988 369.16527 C 467.49685 369.47226 476.34405 365.5108 486.85199 360.36058 C 507.77961 350.10335 523.0764 344.37616 538.97308 340.84691 C 543.37146 339.8704 546.48332 339.3229 548.65667 339.26488 z M 551.30706 356.15745 C 552.56474 356.15745 551.51695 380.30504 550.16449 382.49144 C 548.95444 384.44759 519.95745 384.91066 519.95745 382.97386 C 519.95745 381.65906 549.77004 356.15745 551.30706 356.15745 z M 428.6098 460.26488 C 429.21599 460.29252 429.32103 460.82191 428.9262 461.85081 C 426.81465 467.35349 425.01624 498.34826 425.81292 515.49144 C 426.82175 537.19952 429.35058 568.55139 430.16449 569.43089 C 430.88386 570.20828 433.906 568.95286 456.87738 558.32933 C 467.28284 553.51713 483.78224 546.88491 493.54339 543.59105 C 513.9881 536.69201 540.56423 530.85351 542.43597 532.85081 C 544.00206 534.52196 541.66967 577.64641 539.91839 579.39769 C 539.14428 580.17179 515.59476 580.62373 479.85199 580.55003 L 421.05902 580.42894 L 417.03949 589.29222 C 404.83163 616.22145 396.99917 640.18308 392.35003 664.82347 C 389.13032 681.88757 389.17941 727.16371 392.43988 748.15745 C 396.82629 776.40112 403.25832 804.15745 405.41644 804.15745 C 406.16168 804.15745 410.78787 801.72332 415.69769 798.74925 C 445.88992 780.46073 489.64264 766.84943 519.85394 766.34691 L 531.29144 766.15745 L 530.8012 784.82347 C 530.53192 795.0901 529.93322 808.59016 529.46917 814.82347 L 528.62542 826.15745 L 504.62542 826.37425 C 463.98046 826.74183 420.04883 817.70622 390.43988 802.88988 C 378.6914 797.01091 302.26074 741.82508 303.37347 740.02464 C 304.43474 738.30746 344.09891 738.53873 354.33636 740.32152 C 360.96845 741.47637 363.15876 741.44922 363.92816 740.20433 C 364.47662 739.31688 365.34373 732.53025 365.85394 725.1223 C 367.71847 698.05064 373.69906 657.77364 381.43988 620.15745 C 392.73745 565.25728 422.70431 462.07492 427.83636 460.4055 C 428.14972 460.30357 428.40773 460.25566 428.6098 460.26488 z "
       transform="translate(-183.05511,-81.694563)" />
    <path
       style="fill:#ff0000;stroke-width:1.33333"
       d="m 906.84064,122.27516 c 8.0362,-1.54588 28.38386,-7.90649 38.78396,-12.12373 2.70722,-1.09778 3.12816,-3.32753 0.62816,-3.32753 -0.93784,0 -7.31007,-3.62465 -14.1605,-8.054776 -18.93901,-12.24774 -22.33384,-13.7285 -31.53532,-13.75517 -6.24514,-0.0181 -10.03872,0.89899 -16.79282,4.05962 l -8.72518,4.083 -0.91938,14.220626 c -0.50567,7.82134 -0.56348,14.79649 -0.12854,15.50033 1.18503,1.91743 21.70674,1.54111 32.84956,-0.60237 z"
       transform="translate(-183.05511,-81.694563)"
       id="path412" />
    <g
       id="layer2"
       inkscape:label="Body"
       style="display:inline;fill:#552200">
      <path
         style="fill:#552200;stroke-width:1.33333"
         d="m 1262.583,935.29912 c 0.064,-20.27199 0.7157,-39.53324 1.4484,-42.8028 2.9518,-13.17139 7.095,-17.23443 28.4804,-27.92897 17.6723,-8.8377 25.9063,-14.62996 31.382,-22.07573 4.7292,-6.43061 10.0022,-19.60368 8.4564,-21.12621 -0.5824,-0.57375 -16.6589,2.54112 -35.7256,6.92193 -63.5207,14.59468 -100.2119,21.49656 -138,25.9588 -34.1969,4.03819 -84.1772,3.69149 -384.18171,-2.66491 -322.08674,-6.82425 -296.066,-5.54284 -339.15162,-16.70176 -35.47765,-9.1885 -63.57064,-21.96112 -85.72157,-38.97373 -45.01894,-34.57598 -61.61176,-46.39086 -61.61176,-43.87055 0,6.45289 3.14508,9.60943 25.43607,25.52876 39.90593,28.49924 78.51578,60.62815 98.15801,81.68148 28.212,30.23877 41.19005,51.61709 50.20489,82.70087 2.51851,8.68396 5.09403,16.29812 5.7234,16.92034 1.8254,1.80468 25.14612,2.50044 109.81096,3.27616 43.63333,0.39977 88.93333,1.00678 100.66666,1.34892 11.73334,0.34213 56.13334,0.94226 98.66667,1.33362 42.53333,0.39138 86.63333,0.99062 98,1.33164 11.36666,0.34103 55.76666,0.94347 98.66666,1.33875 42.90004,0.39528 85.80004,0.99208 95.33334,1.32623 9.5334,0.33414 55.7334,0.99254 102.6667,1.46312 46.9333,0.47057 85.5833,1.08432 85.8889,1.36389 0.3055,0.27956 1.6201,0.50829 2.9211,0.50829 2.2054,0 2.3735,-2.49632 2.4817,-36.85814 z"
         transform="translate(-183.05511,-81.694563)"
         id="path348" />
      <path
         style="fill:#552200;stroke-width:1.33333"
         d="m 1297.9456,915.4906 c -0.01,-11.85538 -0.6438,-20.46114 -1.7429,-23.5845 -1.7313,-4.91978 -11.064,-15.74884 -13.5727,-15.74884 -2.4053,0 -12.3773,9.91474 -14.0927,14.01183 -1.8952,4.52637 -3.0682,40.37307 -1.409,43.05771 0.7603,1.23024 5.0437,1.58142 15.9347,1.30648 l 14.895,-0.37602 -0.012,-18.66666 z"
         transform="translate(-183.05511,-81.694563)"
         id="path350" />
      <path
         style="fill:#552200;stroke-width:1.33333"
         d="m 1141.958,850.22497 c 63.489,-5.74956 127.225,-17.8887 180.564,-34.39019 10.8368,-3.35255 14.9216,-6.99369 5.4614,-4.86812 -25.1229,5.64473 -90.4993,15.99033 -134.0254,21.20909 -78.0765,9.3613 -152.2887,11.48458 -188.6667,5.39791 -4.0333,-0.67484 -39.13337,-1.57451 -78.00004,-1.99924 -38.86666,-0.42473 -87.76666,-1.06248 -108.66666,-1.4172 -20.9,-0.35473 -63.5,-0.95183 -94.66667,-1.32688 -217.06595,-2.61211 -243.62322,-3.16544 -258.66666,-5.38949 -36.2567,-5.36028 -59.88106,-12.1443 -81.05385,-23.27559 -5.65371,-2.97236 -51.06534,-35.10796 -100.91474,-71.41243 -49.84939,-36.30448 -91.54939,-65.8321 -92.66667,-65.61694 -1.11726,0.21518 -2.0314,1.05694 -2.0314,1.8706 0,1.70886 91.66385,69.81743 93.96371,69.81743 0.84057,0 6.44261,4.11336 12.44897,9.14082 14.11053,11.8108 46.2576,35.76767 61.58732,45.89653 27.28017,18.02494 67.22236,34.53983 100.31942,41.47906 30.88784,6.47604 44.51562,7.30453 157.68057,9.58617 59.03333,1.19023 169.73333,3.55819 246,5.26212 156.7842,3.50285 242.9319,3.51399 281.3334,0.0364 z"
         transform="translate(-183.05511,-81.694563)"
         id="path352" />
      <path
         style="fill:#552200;stroke-width:1.33333"
         d="m 1163.2317,830.67642 c 0.7005,-0.65996 1.5256,-10.57761 1.8336,-22.03924 l 0.5599,-20.83933 -5.1669,0.95013 c -2.8419,0.52256 -5.602,1.3684 -6.1336,1.87964 -1.2913,1.24179 -2.9997,37.95689 -1.8996,40.82387 0.6761,1.76174 1.8068,2.05281 5.1984,1.33814 2.384,-0.50232 4.9076,-1.45326 5.6082,-2.11321 z"
         transform="translate(-183.05511,-81.694563)"
         id="path354" />
      <path
         style="fill:#552200;stroke-width:1.33333"
         d="m 838.2833,829.15726 c 0.72522,-0.91667 1.72331,-11.12605 2.21799,-22.68752 1.01947,-23.82663 1.32324,-23.13229 -9.34068,-21.3496 l -6.53601,1.09263 -1.06504,20.50784 c -0.58578,11.2793 -0.7546,21.31682 -0.37518,22.30557 0.89371,2.32899 13.27504,2.43647 15.09892,0.13107 z"
         transform="translate(-183.05511,-81.694563)"
         id="path356" />
      <path
         style="fill:#552200;stroke-width:1.33333"
         d="m 548.0827,820.44834 c 0.48898,-2.40657 1.11094,-15.90657 1.38214,-30 l 0.4931,-25.62442 -5.84782,-0.41885 c -3.2163,-0.23036 -6.5163,0.24603 -7.33333,1.05864 -1.40719,1.39956 -4.92155,56.66412 -3.75779,59.09243 0.28087,0.58605 3.58506,0.88605 7.34266,0.66667 6.5404,-0.38186 6.86992,-0.58563 7.72104,-4.77447 z"
         transform="translate(-183.05511,-81.694563)"
         id="path360" />
      <path
         style="fill:#552200;stroke-width:1.33333"
         d="m 1174.8758,565.49059 c 0.5048,-12.10001 0.4476,-22.47719 -0.1271,-23.06043 -0.5747,-0.58323 -3.6877,-1.18323 -6.9178,-1.33334 l -5.8729,-0.2729 -0.8553,8 c -1.2026,11.24889 -1.3345,37.36581 -0.1944,38.50591 0.5227,0.5227 3.6727,0.7727 7,0.55556 l 6.0497,-0.3948 z"
         transform="translate(-183.05511,-81.694563)"
         id="path374" />
      <path
         style="fill:#552200;stroke-width:1.33333"
         d="m 556.84259,578.12799 c 1.77757,-0.53303 2.87043,-10.64866 3.52765,-32.65262 l 0.45844,-15.34853 -6.7687,0.68186 -6.76871,0.68188 -0.85881,12 c -1.16166,16.23139 -1.32568,34.70441 -0.31711,35.71297 0.73891,0.7389 6.654,0.14584 10.72724,-1.07556 z"
         transform="translate(-183.05511,-81.694563)"
         id="path376" />
      <path
         style="fill:#552200;stroke-width:1.33333"
         d="m 851.05802,553.82392 c 0.32494,-0.55 0.81035,-9.1 1.07868,-19 l 0.4879,-18 h -6.66667 -6.66667 l -0.88318,6.66666 c -1.18515,8.94586 -1.33778,29.33459 -0.22792,30.44444 1.22077,1.22079 12.14668,1.12651 12.87786,-0.11106 z"
         transform="translate(-183.05511,-81.694563)"
         id="path382" />
      <path
         style="fill:#552200;stroke-width:1.33333"
         d="m 1180.556,396.00337 c 0.6957,-0.64658 1.2957,-9.12647 1.3334,-18.84419 l 0.069,-17.6686 h -7.3334 -7.3333 l -0.8721,18.66667 c -0.4797,10.26666 -0.5765,19.14545 -0.2151,19.73064 0.8024,1.2995 12.5919,-0.24854 14.3519,-1.88452 z"
         transform="translate(-183.05511,-81.694563)"
         id="path388" />
      <path
         style="fill:#552200;stroke-width:1.33333"
         d="m 566.30102,382.49058 c 0.73494,-0.91667 1.55841,-11.26667 1.82993,-23 l 0.49365,-21.33334 h -6 -6 l -1.08498,21.15029 c -0.59674,11.63266 -0.76556,21.98266 -0.37518,23 0.8915,2.3232 9.30975,2.46156 11.13658,0.18305 z"
         transform="translate(-183.05511,-81.694563)"
         id="path392" />
      <path
         style="fill:#552200;stroke-width:1.33333"
         d="m 861.65425,316.15724 c 0.56631,-7.7 0.86631,-16.7 0.66667,-20 -0.36267,-5.99477 -0.36706,-5.99961 -5.02966,-5.55806 -2.56666,0.24305 -5.24526,1.00165 -5.95245,1.68578 -1.33181,1.28838 -3.56416,35.71491 -2.43875,37.60963 0.34978,0.58888 3.13088,0.88888 6.18024,0.66667 l 5.5443,-0.40402 z"
         transform="translate(-183.05511,-81.694563)"
         id="path400" />
      <path
         style="fill:#552200;stroke-width:1.33333"
         d="m 1187.2443,250.49058 c 1.0703,-4.78937 1.4729,-28.81147 0.4725,-28.1885 -0.4994,0.31093 -1.2848,-0.0445 -1.7454,-0.78976 -1.6158,-2.61448 -9.4223,-1.48952 -12.5161,1.80365 -2.7029,2.87714 -2.9467,4.363 -2.7347,16.66667 l 0.2327,13.50794 h 7.8103 c 7.012,0 7.8788,-0.30663 8.4807,-3 z"
         transform="translate(-183.05511,-81.694563)"
         id="path404" />
      <path
         style="fill:#552200;stroke-width:1.33333"
         d="m 572.68522,237.39249 c 0.48656,-0.78726 1.27197,-9.97168 1.74536,-20.40978 l 0.86069,-18.97838 -3.64699,-0.27656 c -7.12638,-0.54041 -8.5701,2.84816 -9.33442,21.90891 -0.37906,9.45297 -0.4279,17.63723 -0.10854,18.18723 0.89322,1.53828 9.48507,1.18472 10.4839,-0.43142 z"
         transform="translate(-183.05511,-81.694563)"
         id="path408" />
      <path
         style="fill:#552200;stroke-width:1.33333"
         d="m 869.51556,134.8239 c 0.49004,-13.56666 1.19014,-28.96882 1.55581,-34.22701 0.56035,-8.057726 0.28723,-9.902066 -1.73767,-11.734576 -2.23481,-2.02248 -2.63569,-1.9601 -5.74358,0.89368 -3.295,3.0256 -3.36268,3.51372 -4.90647,35.388606 -0.86097,17.77637 -1.17072,32.95928 -0.68836,33.73977 0.48237,0.78048 3.07131,1.23618 5.75317,1.01264 l 4.87614,-0.40644 z"
         transform="translate(-183.05511,-81.694563)"
         id="path410" />
    </g>
    <g
       id="layer3"
       inkscape:label="Sail"
       style="display:inline;fill:#ffcc00">
      <path
         style="fill:#ffcc00;stroke-width:1.33333"
         d="m 1073.2913,803.97217 c 16.9133,-6.63711 37.6195,-12.00267 60.7705,-15.74735 13.8498,-2.24021 22.9834,-2.77548 46.5628,-2.72879 39.5749,0.0784 77.3429,3.86696 117.6667,11.80342 6.7833,1.33508 12.3333,1.95264 12.3333,1.37237 0,-0.58028 -2.6796,-7.59761 -5.9547,-15.59407 -12.9158,-31.53471 -17.3687,-57.97665 -16.3217,-96.92049 0.7659,-28.48797 2.9891,-45.01399 10.5371,-78.32543 2.2886,-10.1002 3.8075,-18.71748 3.3755,-19.14951 -0.432,-0.43204 -14.1769,-0.12013 -30.5442,0.69297 -16.3672,0.81318 -44.6086,1.5021 -62.7586,1.53092 -22.5549,0.0359 -33,0.50479 -33,1.48166 0,0.92332 -0.59,0.98533 -1.6667,0.17521 -0.9167,-0.68972 -12.7667,-1.3626 -26.3333,-1.49528 -13.5667,-0.13267 -42.0368,-0.9126 -63.2668,-1.73313 l -38.6002,-1.49188 -2.7332,3.43665 c -3.3272,4.18363 -14.1985,28.59588 -18.6972,41.986 -5.2687,15.68209 -9.8092,38.26028 -11.3529,56.45295 -2.7803,32.76739 3.0685,74.44143 16.2482,115.7722 6.0806,19.06828 4.5158,18.15464 18.0556,10.54218 6.4239,-3.6117 17.9798,-9.03896 25.6798,-12.0606 z"
         transform="translate(-183.05511,-81.694563)"
         id="path362" />
      <path
         style="fill:#ffcc00;stroke-width:1.33333"
         d="m 725.51428,812.28262 c 29.75104,-15.50456 68.82404,-26.92099 104.44365,-30.51656 18.87243,-1.90504 80.31592,-0.93823 97.33333,1.53155 28.92163,4.19745 62.78573,12.90922 81.70614,21.01945 3.3026,1.41564 6.2043,2.37423 6.4484,2.13019 0.244,-0.24403 -2.6019,-7.26898 -6.3243,-15.611 -8.7401,-19.58698 -14.97948,-38.76693 -19.459,-59.81753 -3.33645,-15.679 -3.59216,-19.19906 -3.64632,-50.1948 -0.0713,-40.83587 2.17116,-57.54301 14.19062,-105.72167 2.9804,-11.94692 5.1471,-21.99357 4.8147,-22.32589 -0.3323,-0.33232 -11.3576,-0.0171 -24.50057,0.70061 -56.15444,3.06629 -106.04447,4.17863 -179.89633,4.01093 -43.26667,-0.0983 -80.1382,-0.28784 -81.93675,-0.4213 -2.66192,-0.19755 -4.19244,1.24514 -8.22954,7.75732 -2.72771,4.4 -7.48475,14 -10.57122,21.33333 -20.82632,49.48278 -22.88657,115.19905 -5.76852,184.00001 2.981,11.98124 15.10662,50 15.94688,50 0.18619,0 7.13816,-3.54359 15.44883,-7.87464 z"
         transform="translate(-183.05511,-81.694563)"
         id="path364" />
      <path
         style="fill:#ffcc00;stroke-width:1.33333"
         d="m 459.52549,774.46492 c 34.33166,-11.15101 73.04853,-15.32881 108.43245,-11.70054 39.40933,4.04102 73.0588,13.15694 106.51185,28.85496 6.88152,3.22919 12.70405,5.87125 12.93896,5.87125 0.2349,0 -2.00512,-5.25 -4.97783,-11.66666 -25.38217,-54.78805 -28.74829,-90.60023 -17.68204,-188.1197 1.20535,-10.62186 1.65988,-19.59143 1.0227,-20.18107 -0.63084,-0.58375 -25.74698,0.41339 -55.81364,2.21587 -42.31271,2.53661 -69.39356,3.34918 -119.83359,3.59568 -61.45718,0.30033 -65.26872,0.45768 -66.95514,2.76398 -0.98351,1.34504 -4.7426,9.44099 -8.35351,17.991 -25.01941,59.24144 -28.47107,104.36835 -13.31404,174.06757 2.23263,10.26667 4.28908,19.04392 4.56991,19.50499 0.28081,0.46108 9.07013,-3.48072 19.53181,-8.75958 10.46167,-5.27884 25.72663,-11.77582 33.92211,-14.43775 z"
         transform="translate(-183.05511,-81.694563)"
         id="path366" />
      <path
         style="fill:#ffcc00;stroke-width:1.33333"
         d="m 361.45186,731.48004 c 0.4991,-2.92753 1.60186,-12.82278 2.45058,-21.98945 5.93389,-64.0889 26.41907,-155.08871 52.75133,-234.33334 1.63682,-4.92591 -2.48344,0.0771 -11.68851,14.19251 -24.55068,37.64714 -41.53425,75.47584 -77.24154,172.04552 -8.83192,23.88575 -18.67604,49.9622 -21.87583,57.94767 -3.19979,7.98547 -5.50203,15.02996 -5.11608,15.65441 0.38593,0.62447 9.51969,0.79843 20.29725,0.38658 10.77755,-0.41184 23.19555,-0.17336 27.59555,0.52996 11.28071,1.80317 11.79423,1.62568 12.82725,-4.43386 z"
         transform="translate(-183.05511,-81.694563)"
         id="path368" />
      <path
         style="fill:#ffcc00;stroke-width:1.33333"
         d="m 759.95793,528.81684 c 19.25067,-5.31663 52.59404,-12.15196 65.65525,-13.4592 4.98266,-0.4987 9.66674,-1.71676 10.51023,-2.73312 1.14528,-1.37998 1.9696,-1.46172 3.33265,-0.33051 1.16812,0.96947 4.05562,1.16639 8.1343,0.55475 3.47782,-0.52154 15.03328,-1.1043 25.67878,-1.29502 45.82083,-0.82093 84.37783,5.29552 117.01697,18.56291 6.04714,2.45809 11.28169,4.0052 11.63229,3.43803 0.3505,-0.56719 -0.5112,-8.85678 -1.915,-18.4213 -8.09578,-55.15976 -6.67874,-123.30973 3.4121,-164.09739 1.8761,-7.58335 3.1724,-14.02664 2.8806,-14.31843 -0.665,-0.665 -54.24849,-1.65144 -139.00484,-2.55897 -35.93333,-0.38476 -77.64019,-1.07895 -92.6819,-1.54263 l -27.34859,-0.84306 -4.75169,5.85884 c -34.87327,42.99868 -48.46599,103.26503 -36.52435,161.93892 2.35879,11.58968 10.59852,37.46026 12.76086,40.0657 1.05326,1.26912 3.9577,0.75552 12.9517,-2.29028 6.3767,-2.15944 19.09398,-5.9976 28.26064,-8.52924 z"
         transform="translate(-183.05511,-81.694563)"
         id="path384" />
      <path
         style="fill:#ffcc00;stroke-width:1.33333"
         d="m 303.37032,654.47729 c 21.60732,-65.32205 44.78649,-120.70404 77.88597,-186.09289 9.49589,-18.75939 17.0991,-34.27415 16.89601,-34.47725 -0.35263,-0.35261 -4.72949,4.6266 -34.75458,39.53753 -43.77543,50.89876 -159.43977,189.22849 -159.43977,190.68332 0,0.44453 6.15,-0.24557 13.66666,-1.53357 17.00048,-2.91308 45.13391,-3.15231 56.46436,-0.48014 4.47205,1.0547 11.37205,3.36143 15.33333,5.1261 3.96127,1.76465 7.6047,2.98686 8.0965,2.71604 0.49181,-0.27084 3.12498,-7.23646 5.85152,-15.47914 z"
         transform="translate(-183.05511,-81.694563)"
         id="path372" />
      <path
         style="fill:#ffcc00;stroke-width:1.33333"
         d="m 448.10551,557.69792 c 29.28014,-13.65324 58.19304,-23.27855 82.20184,-27.36556 6.05884,-1.0314 11.90884,-2.6162 13,-3.52179 1.52999,-1.26977 2.41827,-1.28604 3.88224,-0.0711 1.34577,1.1169 3.80315,1.22926 8.44249,0.38603 8.95004,-1.62672 41.3116,1.50744 58.61575,5.67683 16.44952,3.96348 32.40541,10.00068 50.71011,19.18708 7.51666,3.77232 13.66666,6.19708 13.66666,5.38834 0,-0.80873 -1.81081,-7.29904 -4.02403,-14.4229 -7.18811,-23.13702 -9.38893,-37.23615 -10.22411,-65.4993 -0.85983,-29.09659 0.25412,-42.19847 6.38011,-75.04121 2.16218,-11.5919 3.5599,-21.67703 3.10603,-22.41139 -0.45385,-0.73437 -2.41808,-1.01139 -4.36493,-0.6156 -7.71123,1.56767 -44.9312,4.80841 -69.74979,6.07313 -14.41553,0.7346 -27.74428,1.91895 -29.61946,2.6319 -1.87518,0.71293 -3.7218,0.7908 -4.10362,0.17301 -0.3818,-0.61779 -12.28504,-1.14317 -26.45162,-1.16753 l -25.75744,-0.0443 -39.92889,33.76884 -39.92891,33.76884 -1.62827,7.11632 c -3.09189,13.5131 -4.34052,38.30492 -3.05949,60.7468 1.66973,29.25148 2.86977,41.70284 4.01924,41.70284 0.53003,0 7.19727,-2.9067 14.81609,-6.45933 z"
         transform="translate(-183.05511,-81.694563)"
         id="path380" />
      <path
         style="fill:#ffcc00;stroke-width:1.33333"
         d="m 1075.1251,560.21538 c 34.0957,-16.79217 54.6179,-21.86097 88.8329,-21.94093 32.0541,-0.0749 59.2025,5.59164 100,20.87256 10.6333,3.98277 19.5124,6.80199 19.7314,6.26491 0.2189,-0.53707 -1.1465,-5.7479 -3.0344,-11.5796 -5.5246,-17.06627 -8.6796,-35.64258 -9.5689,-56.34174 -1.1897,-27.69126 0.7116,-42.05651 12.0724,-91.21183 1.8489,-7.99984 3.114,-14.946 2.8112,-15.4359 -0.3028,-0.4899 -8.8728,0.16636 -19.0444,1.45836 -17.985,2.28444 -63.46,7.01753 -82.3007,8.56593 -25.4842,2.0944 -84.2237,0.20081 -103.087,-3.32321 -3.4116,-0.63736 -6.6741,-0.86764 -7.25,-0.51174 -1.5715,0.97128 -7.5743,13.23867 -11.2283,22.94644 -13.7689,36.58059 -17.5243,91.3355 -9.6372,140.51195 0.7939,4.95001 1.7645,9.00001 2.1568,9.00001 0.3923,0 9.1881,-4.17384 19.5462,-9.27521 z"
         transform="translate(-183.05511,-81.694563)"
         id="path378" />
      <path
         style="fill:#ffcc00;stroke-width:1.33333"
         d="m 482.62461,406.96506 c 10.63333,-8.97887 19.56501,-16.97884 19.84818,-17.77772 0.36354,-1.02561 -4.53488,-1.2176 -16.66666,-0.65324 l -17.18152,0.79927 -3.64175,4.33173 c -8.56804,10.19136 -26.35825,42.74785 -26.35825,48.23617 0,1.8446 3.18181,-0.23542 12.33333,-8.06254 6.78333,-5.80166 21.03333,-17.8948 31.66667,-26.87367 z"
         transform="translate(-183.05511,-81.694563)"
         id="path386" />
      <path
         style="fill:#ffcc00;stroke-width:1.33333"
         d="m 1093.1906,370.87442 c 19.8323,-8.50159 36.9743,-12.99828 55.8174,-14.64209 8.2776,-0.7221 15.5861,-1.64419 16.2412,-2.04908 0.6552,-0.4049 1.5681,-0.1264 2.0287,0.61892 0.4606,0.74529 4.175,1.35508 8.2543,1.35508 11.0964,0 32.2388,3.41798 66.3423,10.72521 16.8207,3.60412 30.8503,6.28572 31.1769,5.95912 0.3266,-0.3266 -1.536,-7.06419 -4.1392,-14.97241 -9.2758,-28.17926 -9.8481,-47.37283 -2.2913,-76.84623 3.4193,-13.33618 4.0196,-17.36516 2.7081,-18.17574 -5.8423,-3.61074 -43.7929,-6.77514 -78.7044,-6.56252 -15.7666,0.096 -41.2783,-0.27156 -56.6925,-0.81685 -23.4035,-0.82792 -28.2839,-0.68053 -29.5903,0.89364 -2.7371,3.29795 -15.1677,31.91395 -19.129,44.03608 -2.1001,6.42637 -4.7507,16.95127 -5.8904,23.38867 -2.3486,13.26622 -4.3621,53.70436 -2.674,53.70436 0.6095,0 8.0535,-2.97727 16.5422,-6.61616 z"
         transform="translate(-183.05511,-81.694563)"
         id="path394" />
      <path
         style="fill:#ffcc00;stroke-width:1.33333"
         d="m 513.76607,344.29616 c 41.47705,-14.28401 78.40875,-13.46957 128.5252,2.8343 9.71667,3.16102 17.66667,5.40914 17.66667,4.99584 0,-0.41332 -2.76804,-7.62544 -6.15119,-16.02694 -12.98025,-32.23429 -15.14712,-50.42156 -9.32919,-78.30325 1.72468,-8.26528 2.76332,-15.20622 2.30808,-15.4243 -0.45524,-0.21808 -22.69149,-0.35557 -49.4139,-0.30553 l -48.58619,0.0909 -40.54638,52.00001 -40.54638,52 0.6646,7.57612 c 0.36552,4.16688 1.00152,8.12129 1.41332,8.7876 0.4118,0.66631 7.73604,-2.21699 16.27611,-6.40733 8.54007,-4.19034 21.01372,-9.50821 27.71925,-11.81747 z"
         transform="translate(-183.05511,-81.694563)"
         id="path396" />
      <path
         style="fill:#ffcc00;stroke-width:1.33333"
         d="m 507.84579,286.82967 c 19.12835,-24.56351 34.77881,-45.04604 34.77881,-45.51675 0,-1.34487 -37.42571,-2.93757 -38.64682,-1.64468 -1.77833,1.88289 -20.83004,40.42259 -24.62916,49.82234 -4.79023,11.85193 -8.67341,26.94094 -9.60777,37.33333 -0.70014,7.78704 -0.57088,8.46368 1.27345,6.66667 1.12897,-1.1 17.70315,-22.09742 36.83149,-46.66091 z"
         transform="translate(-183.05511,-81.694563)"
         id="path398" />
      <path
         style="fill:#ffcc00;stroke-width:1.33333"
         d="m 785.55773,301.00055 c 61.54837,-20.53829 121.0464,-18.74645 193.76961,5.83556 l 11.63739,3.93368 -0.75054,-4.30627 c -0.4128,-2.36845 -1.99296,-11.43718 -3.51148,-20.15274 -6.56201,-37.66258 -6.59954,-69.67314 -0.1252,-106.82021 1.68918,-9.69181 2.10822,-15.11892 1.23542,-16 -1.59138,-1.60645 -86.56923,-1.82952 -113.18827,-0.2971 -27.69904,1.59457 -36.36506,1.90812 -58.32037,2.11013 l -20.32045,0.18697 -4.62536,6.33334 c -12.41613,17.00096 -26.06984,49.44326 -31.47563,74.78857 -2.74569,12.87336 -5.28196,58.75184 -3.50406,63.38496 0.68716,1.79072 1.76896,1.63428 8.1191,-1.17405 4.02947,-1.78203 13.5064,-5.30231 21.05984,-7.82284 z"
         transform="translate(-183.05511,-81.694563)"
         id="path402" />
    </g>
  </g>
</svg>
