<?xml version="1.0" encoding="UTF-8" standalone="no"?>
<!-- Created with Inkscape (http://www.inkscape.org/) -->

<svg
   version="1.1"
   id="svg198"
   width="664.13318"
   height="695.64075"
   viewBox="0 0 664.13319 695.64074"
   sodipodi:docname="7b.svg"
   inkscape:version="1.2.2 (732a01da63, 2022-12-09, custom)"
   xmlns:inkscape="http://www.inkscape.org/namespaces/inkscape"
   xmlns:sodipodi="http://sodipodi.sourceforge.net/DTD/sodipodi-0.dtd"
   xmlns="http://www.w3.org/2000/svg"
   xmlns:svg="http://www.w3.org/2000/svg">
  <defs
     id="defs202" />
  <sodipodi:namedview
     id="namedview200"
     pagecolor="#ffffff"
     bordercolor="#000000"
     borderopacity="0.25"
     inkscape:showpageshadow="2"
     inkscape:pageopacity="0.0"
     inkscape:pagecheckerboard="0"
     inkscape:deskcolor="#d1d1d1"
     showgrid="false"
     inkscape:zoom="0.9763936"
     inkscape:cx="487.50832"
     inkscape:cy="328.24877"
     inkscape:window-width="1846"
     inkscape:window-height="1016"
     inkscape:window-x="0"
     inkscape:window-y="0"
     inkscape:window-maximized="1"
     inkscape:current-layer="layer1" />
  <g
     inkscape:groupmode="layer"
     id="layer1"
     inkscape:label="Layer 1"
     transform="translate(211.58723,221.62526)">
    <path
       id="path316"
       style="fill:#000000;stroke-width:0.991198"
       d="M 180.44988 -221.58034 C 177.38613 -221.80242 173.01351 -221.18295 172.96746 -220.20729 C 172.95045 -219.84634 172.29 -214.19822 171.50066 -207.65651 C 169.73671 -193.03698 169.65862 -188.32838 171.18035 -188.32838 C 171.81502 -188.32838 172.09949 -188.09131 171.80925 -187.80104 C 171.51898 -187.51078 166.20474 -188.17356 159.99871 -189.27565 C 148.25239 -191.36158 119.05173 -195.26588 115.19793 -195.26588 C 113.16532 -195.26588 112.8418 -194.45219 111.31121 -185.48268 C 108.90042 -171.35547 101.76845 -150.6857 93.215504 -133.04323 C 86.515757 -119.22357 84.631651 -113.98854 86.360036 -113.98854 C 86.683244 -113.98854 91.255623 -114.85491 96.520192 -115.91432 C 113.83248 -119.39818 138.22142 -120.81855 154.43425 -119.28737 C 160.30506 -118.73291 161.07448 -118.42924 160.57879 -116.86745 C 160.26716 -115.88553 159.98027 -110.68948 159.94207 -105.32057 L 159.87371 -95.558854 L 146.36394 -97.299088 C 135.11748 -98.747051 95.449749 -103.24118 72.529957 -105.66432 L 66.719411 -106.27956 L 67.365895 -100.46901 C 68.58416 -89.511312 65.041795 -80.68814 52.104176 -62.445572 C 36.954532 -41.083949 30.773521 -25.196491 29.578786 -4.5510412 L 28.953786 6.2614588 L 33.820973 5.6286463 C 36.498661 5.2806379 42.264351 4.3462554 46.63152 3.5524744 C 66.082337 0.01716134 83.392389 -1.3753094 108.57097 -1.4279944 C 122.47234 -1.4571086 137.25204 -1.1139873 141.41472 -0.66627562 L 148.98308 0.1481775 L 147.68035 2.8005213 C 146.83409 4.5238129 146.46736 8.4885262 146.63152 14.12474 C 146.77039 18.894789 146.62576 22.797025 146.31121 22.796615 C 145.99662 22.796189 118.11954 19.45337 84.361989 15.368881 C 50.604532 11.284348 22.870591 8.0555921 22.733082 8.1930994 C 22.595607 8.33059 21.776578 15.213429 20.91277 23.488021 C 20.048991 31.762634 18.44257 43.578904 17.342457 49.745834 C 16.24232 55.912779 15.066596 63.093624 14.731129 65.702865 L 14.121754 70.447006 L -76.675121 156.89232 C -126.61232 204.43669 -171.39704 247.12975 -176.19465 251.76341 C -180.99247 256.39727 -185.27784 260.31691 -185.71809 260.4724 C -186.15833 260.62771 -190.38648 258.73154 -195.11262 256.25951 C -205.38459 250.8863 -211.58723 250.09608 -211.58723 254.1599 C -211.58723 256.24175 -204.52698 261.05615 -157.5677 290.99388 C -127.85711 309.9351 -103.54621 325.80624 -103.54621 326.26341 C -103.54621 326.72057 -104.55007 327.10207 -105.77668 327.11107 C -110.41916 327.14267 -110.86638 328.22309 -109.84895 336.95872 C -109.11374 343.27129 -109.1888 345.26423 -110.1927 346.0974 C -110.89875 346.68335 -111.4759 349.0595 -111.4759 351.37865 C -111.4759 355.55376 -111.30127 355.76348 -93.602855 372.64036 C -77.943063 387.57334 -75.373338 389.64584 -72.864574 389.38255 C -70.330971 389.11679 -69.494798 389.82362 -65.606761 395.50755 C -51.005845 416.85289 -39.873801 441.36815 -34.169261 464.73607 L -31.903636 474.01536 L -26.839183 473.52708 C -24.053293 473.25795 -13.967158 471.87466 -4.4270738 470.45482 C 41.917998 463.55762 117.5479 457.86513 253.77996 451.02122 C 365.07968 445.43003 390.03242 443.57822 396.80535 440.40404 C 398.82519 439.45739 405.40532 433.75803 411.4284 427.73997 C 423.6094 415.56912 433.11353 402.24229 439.4616 388.42747 C 443.80703 378.97045 448.55144 365.83629 448.55144 363.26341 C 448.55144 362.35064 449.44353 360.46982 450.53386 359.08372 C 452.72059 356.30389 453.318 348.90208 451.35613 348.90208 C 450.71886 348.90208 443.91711 350.96022 436.2409 353.4763 C 414.39116 360.6387 361.48142 373.24062 359.96941 371.64232 C 359.74128 371.40123 359.84162 367.45941 360.19207 362.88255 C 360.64437 356.97527 361.26156 354.33879 362.31707 353.79466 C 365.4958 352.1558 400.45649 344.3567 411.38152 342.84935 C 414.65246 342.39805 420.50954 341.51171 424.39715 340.8806 L 431.4655 339.73411 L 432.10418 335.15013 C 435.00908 314.34003 434.58794 283.7887 431.14519 265.64036 C 429.26155 255.7106 425.10553 242.18103 423.66472 241.29076 C 423.09488 240.93857 420.90177 242.03825 418.79168 243.73412 C 416.68139 245.42981 413.92775 247.26057 412.67254 247.80247 C 410.19266 248.8729 401.53491 254.69239 398.74285 257.16576 C 396.89213 258.80506 394.03386 259.24147 394.03386 257.88451 C 394.03386 256.7275 397.88081 253.55731 401.96355 251.34935 C 406.28267 249.01366 418.75085 239.75698 420.93621 237.26341 C 424.30214 233.42271 426.40874 209.17827 424.81511 192.62669 C 423.65488 180.57702 419.77389 163.67355 417.30144 159.90013 L 415.74675 157.52708 L 412.72136 159.79466 C 411.05741 161.0414 408.52623 163.28767 407.09636 164.78685 C 404.05299 167.97805 402.95574 168.21388 402.95574 165.67552 C 402.95574 163.58638 406.01495 160.23262 411.22918 156.60912 L 414.79558 154.1306 L 414.82293 145.10716 C 414.87875 126.64199 411.59396 95.490011 407.39715 74.68724 C 403.44382 55.092447 395.86159 34.691146 392.53191 34.691146 C 391.39922 34.691146 391.06121 33.354124 391.06121 28.863021 L 391.06121 23.032943 L 375.94597 17.06224 C 360.10998 10.806963 344.12664 5.5405067 331.5905 2.4470056 C 327.50201 1.4380713 323.59814 0.19707215 322.91668 -0.31080687 C 321.51128 -1.3582936 321.11698 -20.351311 322.48308 -21.195572 C 323.86304 -22.048437 343.3656 -15.029453 351.79949 -10.644791 C 361.98877 -5.34755 373.86757 3.573875 379.92058 10.476303 C 384.33065 15.505032 388.10278 17.423234 388.07488 14.620834 C 388.06794 13.939378 386.99793 10.035619 385.69597 5.9470056 C 379.48348 -13.563228 375.85268 -37.410092 376.87957 -51.961197 L 377.45574 -60.133072 L 366.66472 -64.886979 C 358.22009 -68.608602 337.85855 -75.718101 320.80144 -80.900651 C 319.67847 -81.241833 319.55669 -83.563913 320.13347 -93.68776 L 320.83855 -106.05885 L 315.653 -106.05885 C 311.6785 -106.05885 309.72237 -105.49166 307.28582 -103.63307 C 302.22666 -99.774381 299.54049 -99.536659 294.48699 -102.49831 C 286.02703 -107.45611 275.57846 -106.80155 270.70379 -101.00807 C 267.55651 -97.267865 267.19523 -92.181901 270.07683 -92.181901 C 271.13496 -92.181901 272.24955 -92.583001 272.5534 -93.074479 C 273.82937 -95.139313 278.68586 -95.919098 282.37566 -94.650651 C 286.21622 -93.330335 292.91464 -89.166477 292.92644 -88.092057 C 292.93018 -87.750767 290.14619 -88.070052 286.73894 -88.801041 C 283.33192 -89.532051 278.7363 -90.145132 276.528 -90.164322 C 272.73621 -90.197211 272.3915 -89.950665 270.33269 -85.713151 C 269.13373 -83.245394 268.153 -80.34551 268.153 -79.269791 C 268.153 -78.194076 267.67364 -77.31276 267.08855 -77.31276 C 266.50347 -77.31276 258.36453 -78.893762 249.00066 -80.824479 C 232.02821 -84.323998 190.73202 -91.382656 179.44011 -92.715104 C 173.15351 -93.456928 170.60811 -94.684175 171.69793 -96.447526 C 172.49944 -97.744371 173.34948 -106.96703 173.19988 -112.74831 C 173.12091 -115.80098 173.48171 -116.9612 174.51433 -116.9612 C 175.29803 -116.9612 181.41145 -115.81101 188.09832 -114.40456 C 206.03144 -110.6326 224.95844 -103.99661 243.14129 -95.107682 C 252.00916 -90.772434 259.98017 -87.224869 260.85222 -87.224869 C 262.20826 -87.224869 262.34938 -88.193964 261.83465 -93.916276 C 260.36309 -110.26947 260.00387 -140.66747 261.16472 -150.6526 C 262.23521 -159.86042 262.19542 -161.10535 260.78191 -162.13893 C 256.09138 -165.56888 191.84986 -184.36354 184.81707 -184.36354 C 182.67713 -184.36354 182.36457 -185.40541 184.01238 -187.05299 C 184.61905 -187.65968 184.80763 -188.65562 184.43035 -189.26588 C 183.8803 -190.1578 183.40613 -204.26899 183.86394 -206.17018 C 183.92957 -206.44276 184.20343 -209.65231 184.47136 -213.30299 C 184.91208 -219.30616 184.75974 -220.04741 182.8698 -221.05885 C 182.34846 -221.33787 181.47113 -221.50631 180.44988 -221.58034 z M 307.8659 -86.234635 C 311.23633 -86.234635 314.73894 -84.702088 314.73894 -83.226822 C 314.73894 -82.144907 314.77158 -82.143417 309.03972 -83.521744 C 304.13548 -84.70106 303.47179 -86.234635 307.8659 -86.234635 z M 275.5866 -25.275651 L 290.94988 -25.177994 C 299.83853 -25.121772 307.46269 -24.609553 309.03972 -23.963151 L 311.76629 -22.845963 L 311.76629 -12.414322 C 311.76629 -6.6767328 311.65457 -2.047673 311.51824 -2.1272131 C 310.4443 -2.7536454 285.6109 -6.7829954 282.3991 -6.8518225 C 280.14892 -6.9000461 277.85282 -7.4965445 277.29558 -8.1779944 C 276.73831 -8.8594296 276.12506 -12.984723 275.93425 -17.345963 L 275.5866 -25.275651 z M 163.87957 2.1286463 C 171.85896 1.8981882 222.63499 13.165062 239.903 19.097396 C 246.41079 21.333036 246.86109 21.679435 247.15691 24.681381 C 247.3304 26.441711 246.94673 28.517539 246.30339 29.292709 C 245.66032 30.067893 245.3934 31.376257 245.70964 32.200912 C 246.17628 33.417065 245.40115 33.681293 241.60808 33.595443 C 237.08293 33.493096 162.94491 24.98297 162.50457 24.515365 C 162.38464 24.387997 162.13307 19.383854 161.94597 13.394271 C 161.64917 3.8896737 161.81574 2.4622969 163.2448 2.18724 C 163.41058 2.1553135 163.62216 2.1360787 163.87957 2.1286463 z M 295.73113 60.552474 C 300.5199 60.563959 304.80773 60.740759 306.31316 61.023178 L 309.96355 61.708724 L 309.62371 73.228256 C 309.23042 86.578169 310.14719 85.792328 297.39324 83.698959 C 293.03197 82.983133 287.4117 82.369384 284.903 82.333724 L 280.3405 82.269271 L 279.70574 74.091537 C 279.35564 69.594002 279.06616 64.777312 279.06316 63.386459 L 279.05535 60.857162 L 290.86004 60.597396 C 292.48302 60.561808 294.13485 60.548646 295.73113 60.552474 z M 321.57683 63.550521 C 323.39719 63.670798 326.37413 64.560385 331.23113 65.950912 C 342.27449 69.112583 359.76949 77.679956 368.52019 84.210678 L 375.21941 89.210678 L 374.58855 94.907943 C 374.24168 98.041936 373.67977 100.87087 373.3405 101.19505 C 373.00124 101.51923 367.59412 100.1323 361.32488 98.111068 C 355.05564 96.089877 343.90523 93.004958 336.54558 91.257553 C 329.18603 89.510153 322.49604 87.729926 321.6784 87.300521 C 319.9066 86.370061 318.87867 80.459621 318.778 70.622787 C 318.72347 65.289215 318.54299 63.35006 321.57683 63.550521 z M 137.49089 92.140365 L 137.15496 102.66185 C 136.85181 112.15552 136.39402 114.71926 135.21355 113.5388 C 134.99638 113.32167 127.57518 113.03319 118.72136 112.89818 C 109.86753 112.76303 102.62657 112.61949 102.62957 112.57787 C 102.63371 112.53606 103.52411 109.60187 104.60613 106.05833 C 105.68811 102.51498 106.57774 98.834605 106.58074 97.880599 C 106.59514 94.581592 103.16124 96.155705 96.977223 102.2849 C 93.570263 105.66145 90.57108 108.21256 90.311207 107.95287 C 90.05141 107.69305 91.272499 104.14861 93.026051 100.07787 L 96.215504 92.677474 L 116.85222 92.407943 L 137.49089 92.140365 z M 151.68816 93.667709 L 157.63347 93.941146 C 171.27458 94.56798 212.03941 101.25529 225.87957 105.13646 C 229.58941 106.17683 229.67892 106.30837 229.11004 109.84935 C 228.78815 111.85293 228.24034 115.3879 227.89129 117.70482 C 227.54224 120.02176 226.97925 121.86567 226.64129 121.80247 C 216.34891 119.88303 169.10617 114.97826 160.90691 114.97826 C 158.36024 114.97826 155.16431 114.55549 153.80535 114.0388 C 151.38574 113.11884 151.33791 112.8993 151.51043 103.38451 L 151.68816 93.667709 z M 287.77996 135.19896 C 287.8926 135.19924 287.99622 135.32241 288.08855 135.57201 C 288.68587 137.1867 290.11659 137.65183 296.26824 138.22826 C 300.8141 138.65426 304.18889 139.48497 304.91277 140.35716 C 305.75247 141.369 305.90119 144.1724 305.42058 149.93529 C 304.74266 158.06395 304.2242 159.60205 302.35027 159.0349 C 301.80512 158.8699 297.40462 158.2041 292.57293 157.55443 L 283.78777 156.37279 L 284.44011 151.28685 C 285.7365 141.17235 286.99144 135.19698 287.77996 135.19896 z M 317.57683 142.07201 C 323.63975 141.7134 358.97623 152.55108 366.07293 157.20091 C 368.3544 158.69586 368.45698 159.1529 367.81707 164.88646 C 367.44286 168.23903 366.83311 171.25478 366.4616 171.58763 C 366.09011 171.92053 361.77223 171.1374 356.8659 169.8474 C 351.95948 168.5573 340.63042 166.00637 331.69207 164.17943 L 315.44207 160.85716 L 315.64715 152.04271 C 315.76041 147.19464 316.26673 142.8084 316.77215 142.29662 C 316.899 142.16803 317.17264 142.09591 317.57683 142.07201 z M 375.69793 169.49388 C 376.51566 169.49388 377.18425 169.9409 377.18425 170.48607 C 377.18425 171.03122 376.51566 171.4763 375.69793 171.4763 C 374.88018 171.4763 374.2116 171.03122 374.2116 170.48607 C 374.2116 169.9409 374.88018 169.49388 375.69793 169.49388 z M 392.0534 174.45091 C 392.59855 174.45091 393.04363 175.11949 393.04363 175.93724 C 393.04363 176.75497 392.59855 177.42357 392.0534 177.42357 C 391.50825 177.42357 391.06121 176.75497 391.06121 175.93724 C 391.06121 175.11949 391.50825 174.45091 392.0534 174.45091 z M 108.87566 181.38841 L 126.90691 181.38841 L 126.79949 192.5388 L 126.79949 192.54076 L 126.69207 203.69115 L 118.37371 203.74583 C 113.79914 203.77603 105.2052 203.64816 99.276051 203.46263 L 88.494801 203.12669 L 89.211598 193.00169 C 89.60584 187.43311 90.13558 182.54142 90.387379 182.13255 C 90.639328 181.72367 98.958875 181.38851 108.87566 181.38841 z M 144.4616 182.50951 C 150.93878 182.57277 196.36025 189.55466 197.60418 190.79857 C 197.82369 191.01812 195.94577 194.14181 193.43035 197.73997 C 186.77486 207.26059 186.93475 207.57083 198.02605 206.68333 C 203.06876 206.27978 214.96961 205.98674 224.47136 206.03294 C 233.97308 206.07902 242.22373 205.72738 242.8073 205.25169 C 244.09172 204.20468 254.06146 208.05901 271.02019 216.1599 C 286.51268 223.56019 287.28855 223.60833 286.83465 217.12279 C 286.43871 211.46667 287.38588 210.81021 294.53972 211.79076 L 298.74871 212.36888 L 299.39519 218.43724 C 299.7505 221.77529 299.89256 226.06295 299.70965 227.96654 C 299.49987 230.1477 298.82639 231.48161 297.88933 231.57201 C 297.0716 231.65101 290.60317 230.20463 283.51629 228.35912 C 250.82641 219.84552 202.13877 211.54774 159.86394 207.28294 C 150.18734 206.30675 142.07378 205.31113 141.83464 205.07201 C 141.38765 204.62486 143.1813 183.12198 143.70964 182.59349 C 143.77066 182.53247 144.02978 182.50529 144.4616 182.50951 z M -101.85871 213.10716 C -101.46047 213.10716 -109.81767 221.91648 -120.43098 232.68333 C -131.04429 243.45016 -144.58861 257.27887 -150.52864 263.41185 C -156.46862 269.54484 -161.59654 274.55366 -161.92512 274.54466 C -162.68966 274.52162 -180.12688 264.76105 -181.08137 263.82201 C -183.31451 261.62484 -157.52433 242.11301 -135.21809 229.12474 C -125.99728 223.75576 -103.82021 213.10716 -101.85871 213.10716 z M 314.1198 215.52904 C 317.51331 215.21421 357.43882 224.6119 359.82293 226.35521 C 361.29818 227.43404 361.41104 228.92744 360.77996 239.17552 L 360.06511 250.77318 L 356.97918 250.67162 C 355.28151 250.61584 352.33046 250.19205 350.42254 249.73021 C 348.51447 249.2684 339.36981 247.91576 330.10222 246.72435 C 320.83463 245.53289 312.93854 244.28192 312.55535 243.94505 C 311.8935 243.36321 313.18277 216.31565 313.90691 215.59154 C 313.93786 215.56059 314.01033 215.53919 314.1198 215.52904 z M -46.942699 227.33763 C -46.578715 227.32354 -46.356074 227.34613 -46.290355 227.41185 C -46.03575 227.66647 -51.596608 235.14657 -58.647777 244.03294 C -65.698948 252.91929 -77.643672 268.21817 -85.192699 278.03099 C -92.741728 287.84381 -100.18264 297.42406 -101.72786 299.32005 C -103.27304 301.21602 -104.5384 303.30909 -104.5384 303.97044 C -104.5384 304.63179 -104.87172 305.36464 -105.28059 305.6013 C -106.61796 306.37508 -156.55809 277.927 -156.89582 276.19896 C -157.07241 275.29548 -156.40378 274.26542 -155.4095 273.9099 C -154.41518 273.5544 -150.70299 271.15512 -147.1595 268.57786 C -124.25783 251.92097 -96.918363 239.10523 -69.165355 232.01927 C -58.914953 229.40211 -49.490575 227.43629 -46.942699 227.33763 z M -27.864574 266.02904 C -27.391325 266.06532 -27.223949 266.25056 -27.223949 266.55052 C -27.223949 267.07149 -31.310126 273.88217 -36.304027 281.68529 C -54.077509 309.45675 -62.907542 324.18603 -62.907543 326.06419 C -62.907543 327.11189 -63.258523 328.18713 -63.688793 328.45286 C -64.353295 328.86355 -100.80152 309.35575 -102.45051 307.70677 C -103.3078 306.84947 -90.149873 294.80345 -82.235668 289.20091 C -72.41083 282.24587 -57.393824 274.92336 -44.089183 270.6013 C -33.453821 267.14644 -29.284315 265.92018 -27.864574 266.02904 z M 98.330739 284.76927 C 101.00683 284.80648 103.51134 284.89646 105.81707 285.04271 C 114.91133 285.61954 116.52989 285.97974 117.0241 287.53685 C 118.06265 290.80906 112.51113 329.27324 108.09636 349.39818 C 106.78104 355.39479 105.56933 361.38072 105.403 362.70091 C 105.03564 365.61893 104.4573 365.76623 98.16277 364.54076 C 39.921685 353.20075 9.863578 346.44706 -27.696605 336.26536 C -58.313562 327.96584 -55.968089 328.40844 -55.968089 330.94505 C -55.968089 333.36119 -56.846739 333.57244 -59.331371 331.7556 C -60.959924 330.56475 -60.798132 330.17768 -57.155589 326.55247 C -49.941637 319.37293 -19.170514 302.11687 0.72722312 294.09349 C 7.9812224 291.1684 9.2713118 290.90761 10.084645 292.19701 C 10.915849 293.51466 12.908704 293.38361 26.842457 291.08958 C 52.493428 286.8666 79.598383 284.50884 98.330739 284.76927 z M 132.50066 287.17357 L 138.79754 287.76146 C 142.26056 288.08486 151.85548 289.71519 160.1198 291.38255 C 197.03381 298.83008 230.69671 314.45271 256.97527 336.33372 C 262.00326 340.52046 266.72989 343.94505 267.47918 343.94505 C 268.51232 343.94505 269.01167 341.25124 269.54558 332.79466 C 269.93281 326.66175 270.78241 318.31025 271.4323 314.23607 L 272.61394 306.82786 L 277.07488 306.02513 C 279.52809 305.58343 283.3803 305.47971 285.63543 305.79466 L 289.73504 306.36888 L 289.35222 312.02318 C 289.01655 316.98275 287.88782 326.82187 282.6784 370.21263 L 281.48894 380.12474 L 254.25261 380.2224 C 239.27365 380.27569 225.45755 380.16983 223.54949 379.98802 C 221.64144 379.80616 213.83589 379.18429 206.20379 378.60716 C 181.06231 376.7061 136.60974 371.34768 132.73113 369.74974 C 131.17435 369.10838 130.43888 367.64278 129.91277 364.13451 C 128.28878 353.30516 129.63516 304.6134 131.94793 290.53294 L 132.50066 287.17357 z M 313.47332 309.01536 C 313.72732 309.02707 314.00828 309.0524 314.31902 309.08763 C 319.35161 309.65831 342.77661 314.15087 347.94402 315.53685 C 352.51873 316.76385 352.88823 317.0894 352.73894 319.75169 C 351.86773 335.29632 347.93734 372.43981 347.06902 373.33177 C 346.46065 373.95669 339.94026 375.17314 332.58074 376.0349 C 309.25551 378.76595 308.05261 378.85578 307.47527 377.92161 C 306.66577 376.61194 309.51895 315.29711 310.55535 311.73216 C 311.20414 309.50055 311.6953 308.93356 313.47332 309.01536 z " />
    <path
       style="fill:#008000;stroke-width:0.991198"
       d="m 317.86296,-96.124273 c 0.30324,-6.501487 0.12694,-7.454977 -1.43601,-7.763537 -0.97989,-0.19347 -3.41842,0.89664 -5.41891,2.42249 -2.86588,2.18592 -4.95101,2.857914 -9.83217,3.168726 -5.31264,0.338274 -6.82466,0.0254 -10.61676,-2.196926 -5.42441,-3.17891 -9.65726,-3.28539 -14.35942,-0.36118 l -3.58619,2.230195 6.54117,0.647037 c 6.29004,0.622193 9.19487,1.791294 18.23879,7.340472 3.31595,2.034615 4.77581,2.338784 8.92078,1.858656 2.7258,-0.315746 6.07109,-0.142176 7.434,0.385716 1.3629,0.527882 2.76848,0.671866 3.12352,0.319949 0.35503,-0.351915 0.80106,-3.975134 0.9912,-8.051598 z"
       id="path455" />
    <path
       style="fill:#b3b3b3;stroke-width:0.991198"
       d="m -65.923825,379.95397 c 1.11389,-1.41605 2.025253,-3.88368 2.025253,-5.48352 0,-4.36894 2.845209,-3.27071 8.022222,3.09646 2.402274,2.95456 4.859948,5.53464 5.461497,5.73357 0.601548,0.19885 2.05605,-2.27759 3.232246,-5.50345 1.512045,-4.14687 3.464163,-7.08707 6.663419,-10.03601 2.488669,-2.29401 4.379444,-4.28765 4.201724,-4.43038 -0.887412,-0.71267 -10.008535,-2.53437 -12.689394,-2.53437 -4.218116,0 -10.862985,-3.55571 -27.745199,-14.84653 -18.434183,-12.32877 -25.169783,-16.10759 -27.996543,-15.70663 -1.90992,0.27103 -2.3162,1.00656 -2.57851,4.66883 -0.17126,2.39102 0.16327,4.82194 0.7434,5.40203 1.81584,1.81584 1.21627,7.14338 -1.03285,9.17767 l -2.08763,1.88824 18.194617,17.48353 18.194607,17.48355 2.682946,-1.90914 c 1.47562,-1.05002 3.594307,-3.06777 4.708195,-4.48385 z"
       id="path347" />
    <g
       id="layer3"
       inkscape:label="Body"
       style="display:inline;fill:#ff7f2a"
       transform="translate(-211.58723,-221.62526)">
      <path
         style="fill:#ff7f2a;stroke-width:0.991198"
         d="m -56.605883,345.76166 c -2.212051,-7.44876 -2.964096,-9.20395 -4.463637,-10.41756 -0.738236,-0.59751 -20.075918,-11.4574 -42.97262,-24.13308 -22.89669,-12.67575 -54.70141,-30.39464 -70.67715,-39.3753 -15.97573,-8.98069 -29.25644,-16.11885 -29.5127,-15.86262 -0.49442,0.49442 147.135667,94.91117 148.403159,94.91117 0.409314,0 0.05958,-2.30518 -0.777052,-5.12261 z"
         id="path361"
         transform="translate(211.58723,221.62526)" />
      <path
         style="fill:#ff7f2a;stroke-width:0.991198"
         d="m 126.44006,365.2224 c 0.94219,-1.13526 1.10941,-4.37559 0.65924,-12.77553 -0.33174,-6.18994 -0.14868,-20.33627 0.40686,-31.43631 0.55551,-11.1 1.15813,-23.22481 1.33917,-26.94398 0.21775,-4.47316 -0.0545,-6.87765 -0.80449,-7.1034 -5.71726,-1.72116 -6.25436,-1.55779 -7.35803,2.23801 -0.59135,2.03385 -1.32514,5.70513 -1.63066,8.15834 -2.27015,18.22979 -5.0998,36.45636 -7.66331,49.36141 l -3.01249,15.16503 2.82266,2.42753 c 2.27143,1.95347 3.91192,2.42776 8.40066,2.42875 3.80605,8e-4 5.97907,-0.482 6.84039,-1.51985 z"
         id="path357"
         transform="translate(211.58723,221.62526)" />
      <path
         style="fill:#ff7f2a;stroke-width:0.991198"
         d="m 357.16411,369.25358 c 0.0468,-2.36584 2.80952,-34.36286 3.61568,-41.87311 0.48866,-4.55257 0.30573,-5.29979 -1.53852,-6.28684 -1.41789,-0.75879 -2.4181,-0.79519 -3.10051,-0.1127 -0.55407,0.55408 -1.84211,9.6277 -2.86228,20.16359 -2.11023,21.79377 -2.50057,29.71543 -1.54077,31.26839 1.06225,1.71881 5.37982,-0.79488 5.4264,-3.15926 z"
         id="path355"
         transform="translate(211.58723,221.62526)" />
      <path
         style="fill:#ff7f2a;stroke-width:0.991198"
         d="m 296.09777,378.09398 c 9.01031,-1.05645 8.65169,0.14412 10.09304,-33.78919 0.69151,-16.27962 1.01471,-30.04532 0.71822,-30.59047 -0.94097,-1.73024 -0.94672,-3.4692 -0.0117,-3.4692 0.49692,0 0.90349,-0.42585 0.90349,-0.94629 0,-0.9917 -3.72751,-1.79875 -10.40653,-2.25322 -3.63151,-0.24718 -3.96659,-0.0619 -3.99806,2.20831 -0.0186,1.3629 -0.37427,3.02597 -0.7898,3.69574 -0.41553,0.66975 -2.06816,12.29583 -3.67251,25.8357 -1.60436,13.5399 -3.28447,27.30509 -3.73364,30.58936 -0.90165,6.59336 0.62889,10.71289 3.65644,9.84109 0.87895,-0.25307 4.13733,-0.75793 7.24084,-1.12183 z"
         id="path351"
         transform="translate(211.58723,221.62526)" />
      <path
         style="fill:#ff7f2a;stroke-width:0.991198"
         d="m 286.30036,388.53822 c 59.03941,-2.22469 103.39032,-8.83802 136.45591,-20.3474 16.06536,-5.59196 28.73685,-12.71271 26.53707,-14.91252 -0.31205,-0.31208 -5.56593,1.04853 -11.67522,3.02353 -33.91411,10.96372 -75.49117,19.25416 -120.40069,24.00792 -24.01594,2.54212 -95.14262,2.54512 -120.92624,0.006 -76.3266,-7.51913 -154.803103,-22.05507 -230.871194,-42.76349 -10.515543,-2.8627 -17.12117,-4.21698 -17.707676,-3.63048 -1.449307,1.44932 3.13938,3.3954 25.712919,10.9049 83.763123,27.86539 177.299331,42.77805 279.364291,44.53953 4.36128,0.0753 19.44116,-0.29705 33.51083,-0.8271 z"
         id="path345"
         transform="translate(211.58723,221.62526)" />
      <path
         style="fill:#ff7f2a;stroke-width:0.991198"
         d="M -8.3914236,468.38559 C 40.018631,461.42458 114.77064,455.82387 249.81593,449.0397 c 111.22926,-5.58775 136.24306,-7.44383 143.02499,-10.61283 6.07646,-2.83935 26.71651,-24.30825 34.16233,-35.53423 7.56272,-11.4022 17.58087,-32.39049 17.58276,-36.83635 3.1e-4,-0.75121 -2.62173,-0.0967 -7.1857,1.79387 -28.146,11.65867 -75.68361,20.20188 -131.58167,23.64723 -21.12012,1.30175 -87.3395,1.3077 -109.31797,0.009 -83.95143,-4.95754 -159.809617,-18.84018 -228.446454,-41.80741 -9.956525,-3.33167 -18.296985,-5.86334 -18.534361,-5.62595 -0.751722,0.7517 1.673842,9.21951 3.123076,10.90291 0.764446,0.88792 4.157433,2.15108 7.539986,2.80695 14.511355,2.81377 15.567036,3.14186 15.539813,4.82927 -0.01468,0.90887 -1.846881,2.76759 -4.071582,4.13049 -6.461983,3.95873 -14.222673,12.96871 -15.69257,18.21869 -1.226562,4.38083 -1.439504,4.57889 -4.923537,4.57889 -2.861104,0 -4.362817,-0.74418 -7.007017,-3.4723 l -3.36547,-3.47226 -3.18844,3.09033 -3.188449,3.09038 3.267315,4.59452 c 12.419042,17.46369 24.271052,43.64915 29.799733,65.8386 3.270814,13.1275 3.1428,12.82533 5.170394,12.20321 0.95671,-0.29364 9.545171,-1.65612 19.0854694,-3.02794 z"
         id="path343"
         transform="translate(211.58723,221.62526)" />
      <path
         style="fill:#ff7f2a;stroke-width:0.991198"
         d="m 367.5162,240.39879 c 0.74594,-8.94957 0.19204,-11.20033 -2.50145,-10.16669 -0.98026,0.37616 -1.59837,3.11425 -2.06064,9.12825 -0.70774,9.20728 -0.38722,10.7087 2.18111,10.21694 1.31382,-0.25151 1.78985,-2.08659 2.38098,-9.1785 z"
         id="path385"
         transform="translate(211.58723,221.62526)" />
      <path
         style="fill:#ff7f2a;stroke-width:0.991198"
         d="m 308.16066,241.80772 c 2.49907,-2.26086 3.6185,-26.4983 1.25657,-27.20709 -6.27615,-1.88333 -6.39481,-1.82027 -6.98081,3.70982 -0.30324,2.86262 -0.77288,9.76378 -1.04345,15.33593 l -0.49197,10.13116 3.20222,-0.59806 c 1.76121,-0.32893 3.58706,-0.94623 4.05744,-1.37176 z"
         id="path387"
         transform="translate(211.58723,221.62526)" />
      <path
         style="fill:#ff7f2a;stroke-width:0.991198"
         d="m 137.45526,203.36627 c 0.3498,-0.36643 0.94454,-4.95603 1.32164,-10.19909 l 0.68566,-9.53283 -2.80847,-0.56561 c -4.63572,-0.93358 -5.1206,0.34655 -6.62458,17.49042 l -0.4209,4.79759 3.6053,-0.66213 c 1.98294,-0.36414 3.89154,-0.96189 4.24135,-1.32835 z"
         id="path397"
         transform="translate(211.58723,221.62526)" />
      <path
         style="fill:#ff7f2a;stroke-width:0.991198"
         d="m 374.42247,165.53007 c 0.2382,-2.90326 -0.039,-3.4692 -1.6979,-3.4692 -1.52403,0 -2.05584,0.76666 -2.30004,3.31575 -0.1747,1.82365 -0.0468,4.02154 0.28435,4.88416 0.96153,2.50572 3.37206,-0.56496 3.71371,-4.73071 z"
         id="path409"
         transform="translate(211.58723,221.62526)" />
      <path
         style="fill:#ff7f2a;stroke-width:0.991198"
         d="m 312.62698,158.2691 c -0.10038,-0.64032 0.16943,-1.97357 0.59989,-2.96276 0.80479,-1.84972 0.16758,-14.24929 -0.78108,-15.1979 -0.29177,-0.29178 -1.45624,-0.23664 -2.58767,0.12239 -1.8786,0.59624 -2.05707,1.41686 -2.05707,9.45765 0,7.31341 0.29023,8.96716 1.7134,9.76363 1.94527,1.08861 3.38311,0.54216 3.11253,-1.18293 z"
         id="path415"
         transform="translate(211.58723,221.62526)" />
      <path
         style="fill:#ff7f2a;stroke-width:0.991198"
         d="m 147.19196,111.07926 c 0.56433,-1.05448 1.02608,-5.29185 1.02608,-9.4164 0,-7.235274 -0.0831,-7.499154 -2.35664,-7.499154 -3.3076,0 -4.42276,1.768176 -5.18032,8.213604 -0.51372,4.37087 -0.29705,6.15704 0.98396,8.11213 1.96047,2.99205 4.11806,3.22232 5.52692,0.58982 z"
         id="path427"
         transform="translate(211.58723,221.62526)" />
      <path
         style="fill:#ff7f2a;stroke-width:0.991198"
         d="m 379.405,98.376304 c 0.24998,-2.044354 0.24378,-4.293387 -0.0117,-4.997883 -0.83628,-2.287806 -2.69376,-0.632748 -3.01963,2.690589 -0.62736,6.39813 2.26409,8.59753 3.0333,2.307294 z"
         id="path431"
         transform="translate(211.58723,221.62526)" />
      <path
         style="fill:#ff7f2a;stroke-width:0.991198"
         d="m 316.14635,82.730284 c 0.34686,-1.381946 0.56724,-6.483248 0.48981,-11.336181 -0.10816,-6.770829 -0.48117,-8.954189 -1.60383,-9.384988 -2.45722,-0.9429 -2.85589,0.03097 -3.09654,7.556745 -0.12767,3.988533 -0.45228,7.973514 -0.72174,8.855555 -0.69713,2.281965 1.23129,6.821503 2.89781,6.821503 0.77211,0 1.68764,-1.130687 2.03449,-2.512634 z"
         id="path437"
         transform="translate(211.58723,221.62526)" />
      <path
         style="fill:#ff7f2a;stroke-width:0.991198"
         d="m 178.9452,-188.74255 c 0,-0.228 0.29891,-1.19324 0.66404,-2.145 0.371,-0.9668 0.2602,-1.48091 -0.25089,-1.16497 -1.38824,0.85799 -0.46828,-14.93848 1.15613,-19.85111 1.93344,-5.84726 1.84122,-6.16004 -1.81701,-6.16267 l -3.2214,-0.002 0.32359,8.53286 c 0.20258,5.3387 -0.0362,8.31051 -0.63743,7.93889 -0.59964,-0.3706 -0.68659,0.6229 -0.23139,2.6419 0.40142,1.77973 0.38509,4.11828 -0.0362,5.19681 -1.49785,3.83388 -1.03559,5.4301 1.57257,5.4301 1.3629,0 2.478,-0.18653 2.478,-0.41453 z"
         id="path461"
         transform="translate(211.58723,221.62526)" />
      <path
         style="fill:#ff7f2a;stroke-width:0.991198"
         d="m 169.35207,-103.82951 c 0.67067,-9.44863 0.21837,-12.71386 -1.87161,-13.51592 -2.06804,-0.79359 -2.59807,0.84042 -3.15185,9.71681 -0.52096,8.3505 0.50509,12.473312 3.10425,12.473312 0.93098,0 1.47946,-2.478849 1.91921,-8.674202 z"
         id="path459"
         transform="translate(211.58723,221.62526)" />
      <path
         style="fill:#ff7f2a;stroke-width:0.991198"
         d="m 318.50599,-2.1808439 c 1.29048,-1.2904742 1.56576,-9.6650251 0.55909,-17.0094021 -0.47416,-3.459525 -1.0559,-4.598725 -2.34829,-4.598725 -2.81492,0 -3.98999,11.645747 -1.92525,19.0805828 1.09731,3.95125721 1.80751,4.43449161 3.71445,2.5275443 z"
         id="path449"
         transform="translate(211.58723,221.62526)" />
      <path
         style="fill:#ff7f2a;stroke-width:0.991198"
         d="m 156.61181,19.874577 c 0.31967,-0.517223 0.85814,-4.53157 1.19663,-8.920788 0.61191,-7.935255 0.60194,-7.9802941 -1.76169,-7.9652077 -1.30742,0.00881 -2.87173,0.3428634 -3.47627,0.7433868 -1.23177,0.8161331 -2.83203,14.5424379 -1.87578,16.0897039 0.77914,1.260683 5.14655,1.299749 5.91711,0.05298 z"
         id="path445"
         transform="translate(211.58723,221.62526)" />
    </g>
    <g
       id="layer4"
       inkscape:label="Sail 4"
       style="display:inline"
       transform="translate(-211.58723,-221.62526)">
      <path
         style="fill:#ffaaaa;stroke-width:0.991198"
         d="m 376.68938,347.0396 c 10.95971,-2.70851 37.37161,-7.75375 44.80684,-8.55904 3.38252,-0.36637 6.573,-1.18221 7.08998,-1.81299 1.58691,-1.93627 3.22511,-19.2221 3.25562,-34.35204 0.0396,-19.64304 -2.16113,-35.05463 -7.18309,-50.30335 -2.0471,-6.21594 -3.3927,-7.57753 -4.53821,-4.59239 -0.33825,0.88145 -2.21991,2.35392 -4.1815,3.27213 -6.0382,2.8265 -14.07815,8.30756 -13.26156,9.04076 0.42585,0.38236 3.94906,1.64011 7.82936,2.79494 l 7.05505,2.09973 1.12235,8.75142 c 1.5873,12.37719 1.3916,36.69286 -0.40566,50.40312 -0.84038,6.41077 -1.67819,11.80614 -1.86181,11.98978 -0.48721,0.48719 -9.69489,-1.70984 -11.71256,-2.79474 -0.94663,-0.50897 -2.61287,-0.92543 -3.70279,-0.92543 -3.21123,0 -10.89556,-2.05507 -18.86043,-5.04394 -10.02998,-3.76381 -14.54194,-4.37676 -15.69471,-2.13218 -1.10918,2.15971 -2.404,23.43896 -1.4823,24.36066 0.37337,0.37337 1.38014,0.47283 2.23732,0.22116 0.85717,-0.25184 5.12682,-1.33964 9.4881,-2.41748 z"
         id="path363"
         transform="translate(211.58723,221.62526)" />
      <path
         style="fill:#ffaaaa;stroke-width:0.991198"
         d="m 391.35992,254.39939 c 0.6085,-1.58567 11.7646,-9.26334 18.53462,-12.75556 1.3629,-0.70303 3.52124,-2.50484 4.79629,-4.00403 1.27508,-1.49919 2.91078,-2.72581 3.63488,-2.72581 3.0278,0 5.77881,-24.63235 4.39023,-39.30958 -0.95575,-10.10209 -3.88385,-23.76088 -6.36857,-29.70763 l -1.52787,-3.65672 -2.71028,2.36893 c -8.5065,7.43514 -9.15307,8.24913 -9.15307,11.52309 0,1.80113 -0.44605,3.27477 -0.9912,3.27477 -2.26467,0 -0.76512,1.87455 1.98226,2.47797 l 2.97348,0.65308 -0.57851,11.56785 c -0.31818,6.36232 -0.73631,12.08934 -0.92922,12.72674 -0.19297,0.63737 0.0569,7.9734 0.55551,16.30228 1.22737,20.51051 2.1753,19.73629 -16.60344,13.56088 -8.0286,-2.64022 -15.09954,-4.60775 -15.71318,-4.37228 -1.47259,0.56508 -2.69535,17.5738 -1.35944,18.90973 1.04696,1.04695 12.8299,4.18912 16.4331,4.38222 1.16827,0.0625 2.35378,-0.48456 2.63441,-1.21593 z"
         id="path381"
         transform="translate(211.58723,221.62526)" />
      <path
         style="fill:#ffaaaa;stroke-width:0.991198"
         d="m 386.4953,173.87417 c 0.99061,-2.58144 0.76708,-2.93011 -3.36871,-5.25453 -3.37457,-1.89663 -4.05648,-2.0071 -4.54421,-0.73604 -0.98396,2.56415 0.006,4.98016 2.57615,6.27994 3.29211,1.66561 4.61409,1.59393 5.33677,-0.28932 z"
         id="path405"
         transform="translate(211.58723,221.62526)" />
      <path
         style="fill:#ffaaaa;stroke-width:0.991198"
         d="m 407.59994,154.49136 5.55034,-4.10028 -0.67159,-12.9979 c -1.85447,-35.89057 -7.60415,-68.668563 -15.40992,-87.849599 -3.18489,-7.826172 -3.67354,-8.594874 -4.76801,-7.500406 -0.97138,0.971385 -0.95203,52.789997 0.0217,56.306728 0.54575,1.972337 0.40989,2.595267 -0.50436,2.312837 -0.68821,-0.21248 -3.1469,-0.65201 -5.46383,-0.976502 -3.73113,-0.522521 -4.2126,-0.366564 -4.2126,1.364382 0,1.46223 1.06068,2.23707 4.2126,3.07733 2.31693,0.61765 4.88165,1.53177 5.6994,2.03137 0.81773,0.49962 4.05152,2.07765 7.18619,3.50673 6.2407,2.84518 6.43483,3.31467 4.29093,10.37814 -2.31376,7.62328 -3.84232,23.01914 -3.08636,31.08645 0.38453,4.10356 0.90315,7.46103 1.1525,7.46103 0.24935,0 2.95102,-1.84515 6.00373,-4.10031 z"
         id="path419"
         transform="translate(211.58723,221.62526)" />
    </g>
    <g
       id="layer6"
       inkscape:label="Sail 3"
       style="display:inline"
       transform="translate(-211.58723,-221.62526)">
      <path
         style="fill:#ffe680;stroke-width:0.991198"
         d="m 414.559,322.6351 c 2.70387,-17.93778 1.17683,-50.03882 -2.5398,-53.39109 -1.75404,-1.5821 -18.94893,-7.02549 -34.58984,-10.95011 -23.8011,-5.97219 -57.87533,-11.41186 -73.96925,-11.80862 l -8.04906,-0.19855 -2.69822,3.48215 c -1.48402,1.91518 -2.71062,3.97248 -2.7258,4.57178 -0.0156,0.5993 -1.60005,4.0528 -3.52198,7.67444 -3.70318,6.9783 -5.99503,13.43076 -9.91344,27.91031 -3.14195,11.61019 -3.13972,12.60052 0.0279,11.8058 1.3629,-0.34206 2.478,-0.21249 2.478,0.28776 0,1.0564 28.17322,3.74013 29.65426,2.82479 0.54575,-0.33728 1.79098,-0.15827 2.76718,0.39781 0.97621,0.5561 8.46549,2.144 16.64291,3.52865 17.77493,3.00979 40.87717,8.88342 54.51595,13.86042 5.45159,1.98937 12.58822,4.21659 15.85918,4.9494 3.27096,0.7328 7.0623,1.79575 8.4252,2.36206 5.3682,2.23057 6.34057,1.30032 7.63805,-7.30725 z"
         id="path367"
         transform="translate(211.58723,221.62526)" />
      <path
         style="fill:#ffe680;stroke-width:0.991198"
         d="m 401.7375,224.34453 c -0.41324,-5.90774 -0.47578,-16.83825 -0.13913,-24.29005 l 0.61232,-13.5487 -15.35525,-4.97179 c -18.71019,-6.05798 -49.59186,-13.84578 -69.63812,-17.56135 -15.28016,-2.83219 -31.48192,-3.53591 -33.56016,-1.45765 -0.69204,0.69205 -0.63388,7.39908 0.18306,21.09544 1.33239,22.34116 1.69609,24.65484 3.75149,23.86609 0.77098,-0.29581 1.97138,-0.0653 2.66751,0.5126 0.6962,0.57775 3.47825,1.24607 6.18238,1.48513 7.91059,0.69939 48.25808,9.18197 64.01136,13.45767 7.96995,2.16312 20.45907,5.89971 27.75358,8.30342 7.29454,2.40376 13.49217,4.25346 13.77252,4.11047 0.28033,-0.14308 0.1716,-5.09358 -0.24161,-11.00128 z"
         id="path389"
         transform="translate(211.58723,221.62526)" />
      <path
         style="fill:#ffe680;stroke-width:0.991198"
         d="m 230.48473,203.07504 c 0.003,-0.72324 -21.47807,-6.48746 -27.25515,-7.31353 -3.85716,-0.55154 -4.03835,-0.44391 -6.67437,3.96436 l -2.70953,4.53126 18.31813,-0.2831 c 10.07496,-0.1555 18.31941,-0.56025 18.32092,-0.89914 z"
         id="path401"
         transform="translate(211.58723,221.62526)" />
      <path
         style="fill:#ffe680;stroke-width:0.991198"
         d="m 397.26542,164.78666 c -1.3139,-9.95708 -0.74726,-35.81793 0.93452,-42.65374 1.81163,-7.36345 3.04649,-6.20493 -13.35315,-12.52809 -35.60619,-13.728583 -82.9685,-25.12263 -98.42776,-23.679017 -3.57542,0.333882 -5.97712,0.930675 -5.33713,1.326223 0.76959,0.475633 0.93731,2.059103 0.49524,4.675654 -0.52403,3.101679 -0.33317,4.085098 0.88335,4.551925 1.83671,0.704834 2.10915,5.606875 0.31281,5.628855 -0.89613,0.0117 -0.86054,0.25493 0.12855,0.8814 0.86617,0.5486 1.20298,1.98794 0.91863,3.92542 -0.24687,1.68256 -0.048,3.19291 0.44217,3.3563 0.49012,0.16324 1.08518,2.51597 1.32229,5.22798 0.23695,2.71202 0.62781,6.10569 0.86821,7.54154 0.41747,2.49382 0.29487,2.57442 -2.73653,1.80154 -5.96728,-1.5214 -8.12969,-2.25604 -8.62516,-2.93033 -0.55164,-0.75068 -21.24964,-7.34209 -29.72448,-9.46595 -2.99205,-0.74982 -5.59396,-1.82486 -5.78201,-2.38901 -0.18801,-0.56411 -1.83578,-1.02567 -3.66169,-1.02567 -2.52767,0 -3.48138,0.50911 -3.99696,2.13355 -1.04809,3.30228 -0.69656,9.9856 0.56625,10.76607 1.9006,1.17463 20.54664,3.98291 22.20918,3.34493 0.8563,-0.32859 1.55692,-0.0951 1.55692,0.51867 0,0.6956 0.93366,0.88182 2.478,0.49421 1.38772,-0.34829 2.478,-0.19206 2.478,0.35497 0,0.56888 1.83003,0.77063 4.3816,0.48302 2.68689,-0.30293 6.20552,0.12767 9.09735,1.11296 2.59369,0.88375 6.1656,1.60683 7.93757,1.60683 1.77203,0 3.89087,0.66906 4.70861,1.4868 0.81774,0.81774 2.14,1.48679 2.93835,1.48679 0.79835,0 1.67211,0.57475 1.9417,1.27725 0.30851,0.80425 4.29409,1.74734 10.76142,2.54655 32.55014,4.02248 67.33437,15.82139 87.58484,29.70906 3.27096,2.2432 6.28562,4.09071 6.69927,4.10561 0.41361,0.0154 0.41361,-2.53763 0,-5.6723 z"
         id="path413"
         transform="translate(211.58723,221.62526)" />
      <path
         style="fill:#ffe680;stroke-width:0.991198"
         d="m 386.84505,81.526132 c -0.77826,-13.158129 -0.17625,-35.383316 1.28177,-47.329969 0.61612,-5.047985 0.52369,-7.263881 -0.3393,-8.133095 C 386.15121,24.414981 362.16468,14.88795 348.65817,10.521596 326.83581,3.4668847 283.46488,-5.9600603 280.69795,-4.2499994 c -0.88366,0.5461189 -0.68163,6.4329406 0.97097,28.2911084 l 0.65609,8.677732 -3.36894,-0.639939 c -1.85295,-0.351962 -4.12023,-1.02316 -5.03842,-1.491543 -0.91817,-0.468368 -3.25988,-0.851589 -5.20379,-0.851589 -1.9439,0 -3.53434,-0.409153 -3.53434,-0.909205 0,-1.023792 -6.80475,-3.631567 -11.5502,-4.42645 -2.71823,-0.455263 -3.20727,-0.195756 -3.75704,1.994824 -0.88759,3.536499 0.19637,6.226794 2.73548,6.789085 1.19029,0.263602 6.40154,0.711497 11.58056,0.99538 5.17901,0.284044 10.86602,0.788939 12.63778,1.122352 2.99863,0.564302 3.22732,0.88976 3.30696,4.706311 0.0471,2.255064 0.22332,6.330285 0.39173,9.056081 0.16851,2.725795 -0.10742,5.464945 -0.61289,6.08698 -1.63332,2.009969 4.8495,3.329134 16.39046,3.335269 32.4188,0.01864 63.21115,11.251196 85.343,31.13573 2.7258,2.449031 5.17903,4.472839 5.45161,4.497376 0.27257,0.0248 0.1592,-5.64246 -0.25183,-12.593371 z"
         id="path433"
         transform="translate(211.58723,221.62526)" />
      <path
         style="fill:#ffe680;stroke-width:0.991198"
         d="m 381.82734,3.5858002 c -0.2893,-0.7535275 -1.65914,-6.4405277 -3.04446,-12.63778 -3.06405,-13.7072562 -5.02448,-32.7801782 -4.23658,-41.2176432 0.54272,-5.81158 0.42019,-6.337902 -1.81643,-7.803396 -4.31615,-2.828054 -24.71666,-11.057465 -37.7705,-15.236339 -20.2598,-6.485684 -57.25391,-15.414872 -59.11061,-14.267371 -3.12433,1.930938 -4.38325,11.254205 -1.51963,11.254205 0.56801,0 0.45662,0.660869 -0.25618,1.519627 -0.98138,1.182478 -1.10663,5.965556 -0.56467,21.558583 0.80588,23.185257 1.00659,24.44161 3.91586,24.510644 11.33373,0.26887 33.62004,2.144367 40.78439,3.431965 20.05053,3.603536 40.8258,12.676729 54.7667,23.9183123 7.82077,6.3065112 9.78923,7.4115166 8.85202,4.9691929 z"
         id="path447"
         transform="translate(211.58723,221.62526)" />
    </g>
    <g
       id="layer5"
       inkscape:label="Sail 2"
       style="display:inline"
       transform="translate(-211.58723,-221.62526)">
      <path
         style="fill:#ffaaaa;stroke-width:0.991198"
         d="m 267.16191,333.13361 c 0,-8.43468 2.98519,-28.86127 6.08126,-41.61181 3.43439,-14.1438 6.29263,-22.46534 12.38106,-36.04665 2.38437,-5.31872 4.33523,-10.16047 4.33523,-10.75944 0,-0.59896 1.33205,-3.06274 2.96009,-5.47504 l 2.96006,-4.38603 -2.40812,-0.91556 c -13.22113,-5.02671 -75.70368,-17.16775 -112.04829,-21.77227 -34.22383,-4.33582 -79.58312,-7.61067 -88.686849,-6.40302 l -4.693513,0.62259 -0.639573,10.45319 c -0.351771,5.74927 -0.639601,21.05326 -0.639601,34.00891 v 23.55568 l -6.690584,0.63911 c -24.371946,2.32812 -50.103943,7.6169 -61.702141,12.68191 -3.396377,1.48322 -3.292328,1.50589 4.956,1.08105 4.633843,-0.23851 10.432362,-1.07288 12.885575,-1.85382 8.486217,-2.70139 27.536436,-3.97499 57.985149,-3.87652 32.620477,0.10567 44.361487,1.17357 70.197267,6.38595 35.17545,7.09664 69.93503,22.93253 94.21999,42.92508 3.74919,3.08647 7.20599,5.61177 7.68183,5.61177 0.47584,0 0.86516,-2.18929 0.86516,-4.86508 z"
         id="path365"
         transform="translate(211.58723,221.62526)" />
      <path
         style="fill:#ffaaaa;stroke-width:0.991198"
         d="m 283.21788,206.91262 c -1.80234,-14.79757 -2.03567,-53.46791 -0.38117,-63.16974 1.10884,-6.50197 1.07659,-7.55218 -0.26206,-8.53096 -2.63312,-1.92538 -48.3468,-10.55305 -50.84203,-9.59555 -0.75839,0.29116 -2.35239,0.0313 -3.54224,-0.57744 -8.57789,-4.38763 -118.94348,-12.56979 -121.16056,-8.9825 -0.36629,0.59266 -1.51357,0.85591 -2.5495,0.58504 -2.23958,-0.58568 -3.80725,1.87302 -4.23523,6.64227 -0.16262,1.81097 -0.587501,3.76525 -0.944496,4.34288 -0.356982,0.57758 -0.376867,1.75947 -0.04432,2.62642 0.34844,0.90804 0.09422,1.57625 -0.599861,1.57625 -0.79004,0 -0.990639,0.85287 -0.582763,2.478 0.342085,1.3629 0.225195,2.478 -0.259566,2.478 -0.738133,0 -4.42868,20.91802 -6.653146,37.71026 l -0.596823,4.50516 21.640695,0.2382 c 24.75779,0.27258 40.5146,1.37475 60.29742,4.21813 35.67306,5.12732 72.5514,16.09695 101.10229,30.07341 4.90644,2.40187 9.38217,4.4044 9.94609,4.45008 0.6847,0.0555 0.57412,-3.62097 -0.33291,-11.06788 z"
         id="path395"
         transform="translate(211.58723,221.62526)" />
      <path
         style="fill:#ffaaaa;stroke-width:0.991198"
         d="m 281.58786,114.73109 c -0.38359,-2.8621 -1.38625,-10.11023 -2.22815,-16.10699 -0.9772,-6.960656 -1.59083,-19.505027 -1.69692,-34.691968 L 277.49677,40.14336 261.67401,38.418359 C 235.64959,35.581148 126.6691,22.972322 101.63184,19.9018 83.107075,17.629947 78.13574,17.299792 77.347432,18.289037 75.937235,20.058754 61.552001,70.273483 62.254135,70.975602 c 0.319881,0.319911 2.508627,-0.7369 4.863881,-2.348459 9.26845,-6.341821 27.936842,-17.084996 29.68867,-17.084996 2.972387,0 2.256517,2.465864 -4.670811,16.089176 -3.587305,7.054799 -6.371216,12.978046 -6.186451,13.162781 0.184617,0.184617 4.569432,-2.955379 9.743744,-6.978106 8.906962,-6.924569 13.868262,-9.088337 13.868262,-6.048325 0,0.746659 -1.96502,5.764604 -4.36669,11.150992 -2.40172,5.386387 -4.07436,10.080826 -3.71701,10.432083 0.35733,0.351229 13.13882,0.866749 28.40327,1.145613 37.61393,0.687091 65.45288,4.244253 99.54089,12.718979 14.86829,3.69645 45.68913,13.48414 49.52994,15.72908 2.91642,1.70465 3.33885,1.02949 2.63619,-4.21333 z"
         id="path423"
         transform="translate(211.58723,221.62526)" />
      <path
         style="fill:#ffaaaa;stroke-width:0.991198"
         d="M 46.124514,36.643902 C 57.300278,26.094297 66.584254,17.127531 66.755546,16.717762 67.146854,15.781701 64.56614,15.352238 43.27496,12.810209 33.802917,11.679316 25.692495,11.122073 25.251776,11.571921 c -0.440647,0.449818 -1.503798,7.584232 -2.36249,15.854206 -0.858692,8.269974 -2.218361,18.751896 -3.02155,23.293166 -2.216527,12.533041 -2.159483,12.754421 2.220196,8.617049 2.044353,-1.931221 12.860803,-12.142835 24.036582,-22.69244 z"
         id="path439"
         transform="translate(211.58723,221.62526)" />
      <path
         style="fill:#ffaaaa;stroke-width:0.991198"
         d="m 276.61052,10.383133 c -2.92406,-21.751521 -4.39706,-39.653471 -5.29586,-64.362176 l -0.68355,-18.791299 -4.4604,-1.303198 C 258.65076,-76.270676 229.625,-82.054748 207.94914,-85.675559 163.03999,-93.17734 75.099705,-104.14613 71.362446,-102.71201 c -1.041754,0.39976 -1.449161,2.1782 -1.449161,6.326149 0,12.181382 -3.459907,20.46826 -15.825985,37.904922 -14.082978,19.857562 -20.657727,35.712751 -22.359585,53.9205384 l -0.731808,7.8297973 3.847296,-0.5778766 c 38.959952,-5.8515711 56.026882,-7.111667 85.621257,-6.3215536 24.09912,0.6434174 40.63368,2.2611402 63.93233,6.2551471 27.471,4.7092753 61.85955,14.2615634 84.74752,23.5406974 4.63385,1.878668 8.74833,3.104995 9.14329,2.725179 0.39496,-0.379787 -0.35975,-8.708331 -1.67708,-18.507857 z"
         id="path443"
         transform="translate(211.58723,221.62526)" />
      <path
         style="fill:#ffaaaa;stroke-width:0.991198"
         d="m 259.07146,-100.1113 c -0.4962,-4.0887 -0.77455,-18.89707 -0.6185,-32.9075 0.19205,-17.24436 -0.0613,-25.81864 -0.78428,-26.54186 -2.92389,-2.92473 -43.58398,-15.46124 -69.30708,-21.36909 -19.47122,-4.47196 -55.3778,-10.44831 -69.3003,-11.53446 l -3.88117,-0.30278 -1.76325,10.47192 c -2.33241,13.85242 -9.16249,34.32081 -16.806949,50.36713 -3.406723,7.15093 -5.975564,13.22015 -5.708558,13.48716 0.266991,0.26701 5.132267,-0.26109 10.811677,-1.17352 13.32206,-2.14028 55.44105,-2.43344 69.30256,-0.48239 27.14697,3.82105 51.7185,11.10791 73.94382,21.928536 7.57749,3.689194 14.05561,6.433854 14.3958,6.099234 0.34016,-0.334607 0.21248,-3.953684 -0.28372,-8.04238 z"
         id="path457"
         transform="translate(211.58723,221.62526)" />
    </g>
    <g
       id="layer7"
       inkscape:label="Sail 1"
       style="display:inline"
       transform="translate(-211.58723,-221.62526)">
      <path
         style="fill:#ffe680;stroke-width:0.991198"
         d="m -41.970491,311.42468 c 34.1401112,-20.47195 75.171214,-34.18041 113.361935,-37.87416 6.537137,-0.63225 12.224152,-1.35874 12.63778,-1.61438 0.413644,-0.25554 0.756478,-11.70098 0.761863,-25.43407 0.01864,-46.5555 4.816275,-91.40319 13.790672,-128.90401 1.677451,-7.00945 3.049921,-12.99722 3.049921,-13.30616 0,-1.92772 -23.844996,24.49712 -38.265364,42.40538 -22.336045,27.73849 -51.482352,68.35228 -78.246315,109.03189 -14.577718,22.15727 -36.878938,57.17964 -39.108731,61.41729 -1.268579,2.41092 -1.255121,2.42225 1.09347,0.92213 1.307835,-0.83534 6.223976,-3.82511 10.924769,-6.64391 z"
         id="path371"
         transform="translate(211.58723,221.62526)" />
      <path
         style="fill:#ffe680;stroke-width:0.991198"
         d="m -82.235758,284.41333 c 10.078007,-6.87985 29.819873,-15.18898 45.595154,-19.19049 l 8.920788,-2.26281 10.308927,-15.26202 C 21.827618,189.6067 54.395353,145.89405 77.606263,120.16536 c 6.266888,-6.94667 7.8869,-9.51291 10.637203,-16.85037 1.784437,-4.760613 4.832344,-12.112489 6.773148,-16.337473 1.940759,-4.224984 3.208325,-7.681795 2.816798,-7.681795 -1.901767,0 -25.532645,21.685948 -42.79765,39.275238 -34.326269,34.97098 -75.565456,83.1016 -120.916677,141.12301 -6.178631,7.9048 -13.428089,17.16013 -16.109899,20.56737 -5.119173,6.50391 -5.179142,7.52035 -0.24495,4.15199 z"
         id="path375"
         transform="translate(211.58723,221.62526)" />
      <path
         style="fill:#ffe680;stroke-width:0.991198"
         d="m -90.16535,235.15957 c 13.003203,-4.22596 29.562892,-8.49874 37.621744,-9.70722 4.276099,-0.64125 4.732859,-1.09686 20.180202,-20.1294 C 1.4589093,163.65069 34.266178,127.57073 60.642194,103.03948 74.809438,89.863143 76.904951,87.503721 78.896767,82.486084 c 1.237569,-3.117601 3.538861,-8.269768 5.113937,-11.449285 1.575105,-3.179488 2.725957,-6.194494 2.557482,-6.699976 -0.168504,-0.505482 -6.103461,2.780403 -13.18883,7.302008 -36.348199,23.195985 -81.4372792,59.670369 -133.31314,107.842459 -17.521687,16.27068 -77.313526,75.23947 -77.313526,76.24927 0,0.36724 7.69419,-3.16876 17.09819,-7.85778 10.18664,-5.07925 22.306886,-10.21828 29.98377,-12.71321 z"
         id="path379"
         transform="translate(211.58723,221.62526)" />
      <path
         style="fill:#ffe680;stroke-width:0.991198"
         d="m -139.7253,227.39541 c 5.45159,-3.1956 16.48506,-8.74418 24.51879,-12.33018 l 14.60681,-6.52001 18.598361,-17.40979 C -37.086768,149.09119 6.3261222,112.44935 41.67247,86.750869 l 12.877225,-9.362344 7.548703,-26.30437 c 4.151754,-14.467388 7.20493,-26.304385 6.784786,-26.304385 -0.604792,0 -208.481984,197.2806 -218.024874,206.91103 -2.94837,2.97542 -3.12421,3.05562 9.41639,-4.29539 z"
         id="path391"
         transform="translate(211.58723,221.62526)" />
    </g>
  </g>
</svg>
